<svg width="18" height="14" viewBox="0 0 18 14" fill="none" xmlns="http://www.w3.org/2000/svg">
<g clip-path="url(#clip0)">
<path d="M0 3.69988C0.0313043 3.49896 0.0528261 3.29414 0.0958696 3.09517C0.250435 2.36171 0.596739 1.72774 1.12109 1.19131C1.68652 0.611956 2.36935 0.237426 3.1637 0.0794213C4.08913 -0.103942 4.97543 0.0228518 5.81478 0.461754C6.26087 0.695835 6.6463 1.00599 6.98087 1.38052C7.01022 1.41173 7.06891 1.43319 7.11391 1.43319C8.11761 1.43514 9.1213 1.43514 10.127 1.43514C10.7022 1.43514 11.1326 1.8799 11.1307 2.45339C11.1267 4.03734 11.1287 5.61934 11.1287 7.20329C11.1287 8.51415 11.1267 9.82305 11.1287 11.1339C11.1287 11.4402 11.0367 11.7094 10.8137 11.9239C10.6161 12.1131 10.3774 12.2029 10.1054 12.2029C9.045 12.2029 7.98652 12.2029 6.92609 12.2029C6.89087 12.2029 6.85565 12.2029 6.82435 12.2029C6.76565 12.3765 6.72261 12.5501 6.65022 12.7101C6.33913 13.3869 5.81283 13.8024 5.08109 13.9585C5.01261 13.9741 4.94217 13.9838 4.87174 13.9975C4.74848 13.9975 4.62326 13.9975 4.5 13.9975C4.48239 13.9916 4.46283 13.9838 4.44522 13.9819C3.645 13.8785 3.0737 13.4572 2.72348 12.7393C2.6413 12.5735 2.59826 12.3882 2.5337 12.2029C2.30283 12.2029 2.06217 12.2029 1.82152 12.2029C1.21696 12.2029 0.721957 11.7094 0.721957 11.1066C0.721957 10.5799 0.723913 10.0532 0.723913 9.52655C0.723913 8.45367 0.723913 7.3808 0.72 6.30988C0.72 6.25331 0.702391 6.18699 0.671087 6.14017C0.393261 5.73638 0.195652 5.29358 0.0958696 4.81176C0.0547826 4.61279 0.0313043 4.40992 0 4.209C0 4.03929 0 3.86959 0 3.69988ZM3.95609 7.17793C5.78543 7.17208 7.21174 5.74223 7.19804 3.90275C7.18239 2.14714 5.76587 0.701687 3.92087 0.721194C2.09543 0.740701 0.71413 2.20761 0.721957 3.95151C0.729783 5.75004 2.16587 7.18378 3.95609 7.17793ZM3.24196 11.8459C3.25174 12.6652 3.89935 13.2914 4.72304 13.2796C5.48217 13.2699 6.12978 12.6047 6.12196 11.8459C6.11413 11.0344 5.45674 10.3985 4.63696 10.4102C3.87587 10.4219 3.23217 11.0832 3.24196 11.8459Z" fill="#7D4096"/>
<path d="M13.9309 13.9999C13.7392 13.9551 13.5377 13.9316 13.3557 13.8595C12.6162 13.563 12.1583 13.0226 11.992 12.2424C11.9803 12.1858 11.9627 12.1468 11.9059 12.1156C11.6516 11.979 11.5225 11.7625 11.5225 11.4738C11.5225 10.0205 11.5244 8.56924 11.5244 7.11599C11.5244 6.05677 11.5244 4.99755 11.5225 3.93834C11.5225 3.57161 11.8335 3.23609 12.2033 3.23219C12.9566 3.22634 13.7099 3.22244 14.4612 3.23414C14.8055 3.23999 15.0931 3.41165 15.3651 3.61257C15.7564 3.90127 16.0381 4.28556 16.3257 4.66984C16.7014 5.17116 17.0868 5.66663 17.4527 6.17576C17.7325 6.56395 17.9242 6.99699 17.9849 7.47881C17.9868 7.49442 17.9946 7.50807 18.0005 7.52368C18.0005 8.77211 18.0005 10.0205 18.0005 11.269C17.9966 11.2768 17.9907 11.2865 17.9888 11.2943C17.9203 11.8113 17.4703 12.2248 16.8755 12.2053C16.6681 12.1994 16.4588 12.2033 16.2475 12.2033C16.2435 12.219 16.2377 12.2307 16.2357 12.2424C16.2299 12.2638 16.2259 12.2872 16.2201 12.3087C16.0244 13.0812 15.5568 13.6117 14.8035 13.879C14.6431 13.9355 14.4709 13.959 14.3046 13.998C14.1794 13.9999 14.0542 13.9999 13.9309 13.9999ZM17.2844 7.89626C17.2785 7.75581 17.2844 7.62706 17.2629 7.50417C17.1944 7.11209 17.0125 6.76682 16.7816 6.45081C16.447 5.9924 16.0909 5.54764 15.7485 5.09509C15.7114 5.04632 15.6742 5.02681 15.6116 5.02681C14.9835 5.02876 14.3535 5.02876 13.7255 5.02876C13.2872 5.02876 12.9605 5.35453 12.9605 5.78953C12.9605 6.23038 12.9742 6.67318 12.9566 7.11404C12.9409 7.52173 13.3381 7.90796 13.7412 7.90211C14.8818 7.8865 16.0225 7.89626 17.1631 7.89626C17.1964 7.89626 17.2316 7.89626 17.2844 7.89626ZM12.6749 11.8483C12.6709 12.6579 13.3616 13.3113 14.1794 13.2821C14.9522 13.2528 15.5764 12.5837 15.5529 11.7957C15.5294 11.0056 14.8505 10.3853 14.0366 10.4126C13.2931 10.436 12.6514 11.1149 12.6749 11.8483Z" fill="#7D4096"/>
<path d="M4.32169 2.44426C4.32169 2.77197 4.31973 3.09969 4.32364 3.42935C4.32364 3.46837 4.34321 3.51713 4.3706 3.54639C4.53886 3.73366 4.58777 3.94628 4.48603 4.17646C4.38625 4.40079 4.20625 4.51588 3.95582 4.52563C3.91473 4.52758 3.86386 4.55489 3.83256 4.58415C3.60169 4.81043 3.37473 5.04256 3.14386 5.27274C3.04408 5.37223 2.92669 5.43075 2.7819 5.38393C2.63517 5.33711 2.53734 5.23763 2.50995 5.08157C2.48843 4.95868 2.53734 4.8592 2.62147 4.77532C2.85625 4.54124 3.09103 4.31106 3.31995 4.07698C3.35321 4.04186 3.37864 3.98529 3.3806 3.93653C3.39038 3.78633 3.44712 3.66343 3.54299 3.55029C3.57234 3.51518 3.59582 3.46056 3.59582 3.4157C3.59973 2.76027 3.59777 2.10289 3.59973 1.44747C3.59973 1.29921 3.66038 1.18217 3.79734 1.1139C3.93038 1.04758 4.06343 1.06123 4.18277 1.15291C4.28647 1.23289 4.32169 1.34408 4.32169 1.47087C4.32169 1.79469 4.32169 2.1185 4.32169 2.44426Z" fill="#7D4096"/>
</g>
<defs>
<clipPath id="clip0">
<rect width="18" height="14" fill="white"/>
</clipPath>
</defs>
</svg>
