<svg width="8" height="15" viewBox="0 0 8 15" fill="none" xmlns="http://www.w3.org/2000/svg">
<path d="M4.88739 14.7145C3.82779 14.7145 2.84436 14.7078 1.86092 14.7179C1.54304 14.7212 1.57946 14.5072 1.57946 14.3065C1.57946 12.5776 1.58277 10.8487 1.58277 9.11976C1.58277 8.54791 1.58277 7.97272 1.58277 7.36074C1.03973 7.36074 0.53311 7.36074 0 7.36074C0 6.52136 0 5.71876 0 4.85931C0.503309 4.85931 1.01986 4.85931 1.58609 4.85931C1.58609 4.17042 1.61258 3.53838 1.58277 2.91302C1.49006 1.03027 2.84767 0.0303648 4.4172 0.00695581C5.39732 -0.00642078 6.38076 0.00361171 7.39069 0.00361171C7.39069 0.819584 7.39069 1.63556 7.39069 2.53179C6.93374 2.53179 6.47016 2.53179 6.0099 2.53179C5.08275 2.53179 4.88077 2.73913 4.87746 3.67883C4.87746 4.05003 4.87746 4.42123 4.87746 4.83256C5.74169 4.83256 6.56288 4.83256 7.43042 4.83256C7.32447 5.68532 7.22513 6.48792 7.11917 7.33064C6.37745 7.33064 5.6556 7.33064 4.88739 7.33064C4.88739 9.79528 4.88739 12.2231 4.88739 14.7145Z" fill="#7D4096"/>
</svg>
