<svg width="15" height="15" viewBox="0 0 15 15" fill="none" xmlns="http://www.w3.org/2000/svg">
<path d="M0 5C0 2.23857 2.23858 0 5 0H9.71792C12.4793 0 14.7179 2.23858 14.7179 5V9.71792C14.7179 12.4793 12.4793 14.7179 9.71792 14.7179H5C2.23857 14.7179 0 12.4793 0 9.71792V5Z" fill="#7D4096"/>
<path d="M1.96488 7.36011C1.96488 6.63685 1.96488 5.91359 1.96488 5.19032C1.96733 3.56482 3.09536 2.24333 4.70159 2.00061C4.99096 1.95648 5.28768 1.96629 5.58195 1.96629C6.92578 1.96384 8.26962 1.95893 9.61345 1.96629C11.0848 1.97609 12.3747 3.03279 12.6763 4.47196C12.7205 4.68527 12.7499 4.90837 12.7499 5.12658C12.7548 6.63685 12.7597 8.14957 12.7499 9.65985C12.7401 11.1309 11.5802 12.4769 10.126 12.6951C9.71644 12.7564 9.29466 12.749 8.88023 12.7515C7.6541 12.7588 6.42797 12.7539 5.2043 12.7539C4.25038 12.7539 3.44113 12.4082 2.79619 11.707C2.2665 11.126 1.98204 10.437 1.96978 9.65004C1.95507 8.88755 1.96733 8.1226 1.96488 7.36011ZM2.45533 7.3454C2.45533 7.7671 2.45288 8.18635 2.45533 8.60805C2.45778 9.0322 2.44061 9.4588 2.4823 9.8805C2.60737 11.2044 3.77219 12.2538 5.10376 12.2587C6.59228 12.2636 8.07834 12.2636 9.56686 12.2611C11.0676 12.2562 12.2594 11.0671 12.2643 9.56423C12.2692 8.08583 12.2668 6.60498 12.2619 5.12658C12.2619 4.94515 12.2398 4.75882 12.2006 4.57984C11.9308 3.32455 10.842 2.45418 9.54233 2.45418C8.16907 2.45418 6.79581 2.45173 5.42255 2.45663C5.18714 2.45663 4.94681 2.45663 4.71385 2.49586C3.37247 2.72633 2.45778 3.82471 2.45533 5.19032C2.45533 5.90868 2.45533 6.62704 2.45533 7.3454Z" fill="white"/>
<path d="M4.66214 7.35023C4.67195 5.83996 5.88582 4.65576 7.41848 4.66312C8.8604 4.67048 10.0694 5.91106 10.0596 7.36984C10.0473 8.87276 8.83097 10.0692 7.32774 10.0569C5.85639 10.0447 4.65479 8.82127 4.66214 7.35023ZM9.56665 7.36003C9.56174 6.12436 8.57839 5.14856 7.34 5.15102C6.13349 5.15592 5.14524 6.15378 5.15259 7.36003C5.15995 8.60062 6.1433 9.5666 7.3964 9.5617C8.5833 9.55925 9.57155 8.55648 9.56665 7.36003Z" fill="white"/>
<path d="M10.7929 4.42004C10.7929 4.68974 10.5673 4.91039 10.3 4.90794C10.0303 4.90549 9.80958 4.68238 9.81203 4.41514C9.81448 4.14545 10.0352 3.92725 10.3049 3.92725C10.5747 3.92725 10.7954 4.15035 10.7929 4.42004Z" fill="white"/>
</svg>
