<svg width="9" height="15" viewBox="0 0 9 15" fill="none" xmlns="http://www.w3.org/2000/svg">
<path d="M4.18164 7.74736C2.06505 7.74325 0.356281 6.00514 0.360359 3.8634C0.364437 1.71342 2.08544 -0.00820803 4.22242 2.94371e-05C6.33901 0.0082669 8.03963 1.74637 8.03555 3.89223C8.02332 6.03397 6.30231 7.7556 4.18164 7.74736ZM5.73952 3.89223C5.74767 3.03553 5.05846 2.32711 4.21427 2.31476C3.37008 2.3024 2.66455 3.00258 2.65231 3.85928C2.64008 4.71598 3.32929 5.4244 4.18164 5.43676C5.02175 5.44499 5.73136 4.74481 5.73952 3.89223Z" fill="#7D4096"/>
<path d="M5.70693 10.7254C6.2738 11.2979 6.82029 11.8416 7.36269 12.3894C7.50135 12.5294 7.64408 12.6695 7.77866 12.8136C8.21911 13.2708 8.22318 13.9504 7.79497 14.387C7.36676 14.8236 6.6857 14.8277 6.24118 14.3787C5.56827 13.6991 4.90352 13.0154 4.21838 12.3111C4.0838 12.4429 3.96553 12.5541 3.85134 12.6695C3.28039 13.2461 2.70945 13.8268 2.13442 14.3993C1.74699 14.7824 1.18419 14.8194 0.751902 14.5147C0.315533 14.2057 0.156481 13.658 0.372626 13.1678C0.433799 13.0278 0.535759 12.9001 0.641792 12.7889C1.26576 12.1464 1.89788 11.5162 2.52592 10.8778C2.56671 10.8366 2.60749 10.7913 2.66051 10.7378C2.33833 10.6307 2.02431 10.5483 1.7266 10.4206C1.33509 10.2518 0.947658 10.0623 0.580619 9.84814C0.00966935 9.51452 -0.157533 8.86788 0.156489 8.32833C0.466433 7.78878 1.11894 7.61579 1.67765 7.95353C2.75022 8.59605 3.8962 8.81846 5.12374 8.57957C5.66207 8.4766 6.16777 8.2789 6.63268 7.99059C6.92224 7.80937 7.22811 7.72288 7.5666 7.82173C8.00705 7.94529 8.28028 8.23772 8.35777 8.6949C8.43933 9.16855 8.27212 9.55159 7.87654 9.81107C7.27296 10.2147 6.60822 10.4865 5.90677 10.676C5.85375 10.6842 5.80481 10.6966 5.70693 10.7254Z" fill="#7D4096"/>
</svg>
