<svg width="14" height="14" viewBox="0 0 14 14" fill="none" xmlns="http://www.w3.org/2000/svg">
<path d="M13.0845 11.0002C13.0872 11.0585 13.09 11.1029 13.09 11.1501C13.09 11.7747 13.0927 12.3993 13.09 13.024C13.09 13.2488 13.0544 13.4626 12.915 13.6486C12.7454 13.8734 12.5212 13.9789 12.2505 13.9984C12.2177 14.0011 12.1876 13.9984 12.1548 13.9984C8.41674 13.9984 4.68143 13.9984 0.943397 13.9984C0.352748 13.9984 0 13.6458 0 13.0462C0 10.2757 0 7.50517 0 4.73189C0 4.26829 0.224228 3.95459 0.653541 3.82967C0.743779 3.80469 0.842221 3.80469 0.935193 3.80469C4.67597 3.80469 8.41674 3.80469 12.1602 3.80469C12.6306 3.80469 12.9368 4.024 13.0517 4.4404C13.0763 4.52924 13.09 4.62085 13.09 4.71246C13.0927 5.37871 13.0927 6.04496 13.09 6.71121C13.09 6.73898 13.0845 6.76396 13.079 6.80282C13.0325 6.80282 12.9943 6.80282 12.9532 6.80282C11.7993 6.8056 10.6481 6.80005 9.49412 6.81115C8.93356 6.8167 8.46322 7.04989 8.08313 7.46353C7.27099 8.34909 7.33115 9.66771 8.21986 10.4755C8.59721 10.8198 9.05387 10.9947 9.56249 10.9974C10.6782 11.003 11.7966 11.0002 12.9122 11.0002C12.9697 11.0002 13.0243 11.0002 13.0845 11.0002Z" fill="#7D4096"/>
<path d="M11.4677 10.2812C10.8087 10.2812 10.147 10.3006 9.48797 10.2756C8.92193 10.2534 8.52269 9.93418 8.31761 9.40673C8.00314 8.60168 8.47621 7.72444 9.31022 7.53845C9.43328 7.51069 9.5618 7.50513 9.69032 7.50513C10.9427 7.50236 12.1951 7.50236 13.4475 7.50513C13.8249 7.50513 13.9999 7.6828 13.9999 8.06035C13.9999 8.61556 13.9999 9.17077 13.9999 9.72598C13.9999 10.1341 13.844 10.2923 13.4366 10.2923C12.7803 10.2923 12.124 10.2923 11.4677 10.2923C11.4677 10.2867 11.4677 10.284 11.4677 10.2812Z" fill="#7D4096"/>
<path d="M2.07031 2.83024C2.5133 2.50267 2.95628 2.17232 3.39927 1.84474C4.11297 1.31452 4.82667 0.778737 5.5431 0.254064C6.00523 -0.0846149 6.54666 -0.0846149 6.97324 0.290152C7.16465 0.459491 7.30411 0.69268 7.45724 0.90366C7.90023 1.51162 8.34048 2.12235 8.78073 2.73308C8.80534 2.76917 8.82995 2.80526 8.87097 2.86633C8.48541 2.86633 8.12172 2.86911 7.76077 2.86355C7.73069 2.86355 7.69514 2.82191 7.67327 2.79138C7.26036 2.22506 6.84745 1.65597 6.43728 1.08966C6.31696 0.925868 6.23493 0.911988 6.07633 1.03136C5.28606 1.61988 4.49306 2.20841 3.7028 2.79693C3.66452 2.82469 3.61529 2.86355 3.57154 2.86355C3.0766 2.86911 2.58166 2.86633 2.08398 2.86633C2.07852 2.84967 2.07305 2.84135 2.07031 2.83024Z" fill="#7D4096"/>
<path d="M12.0543 2.86076C11.6878 2.86076 11.3351 2.86354 10.9796 2.85798C10.9386 2.85798 10.8866 2.80801 10.8593 2.76915C10.4491 2.20561 10.0417 1.6393 9.63424 1.07576C9.52212 0.920298 9.44829 0.906418 9.29516 1.01746C9.10375 1.15626 8.91507 1.29784 8.71819 1.44497C8.53224 1.1868 8.35177 0.939731 8.14941 0.656573C8.47755 0.453921 8.77288 0.215181 9.11195 0.0736022C9.544 -0.109617 10.0499 0.062498 10.3315 0.442817C10.914 1.22844 11.48 2.02517 12.0515 2.81634C12.0515 2.82189 12.0515 2.833 12.0543 2.86076Z" fill="#7D4096"/>
</svg>
