<svg width="40" height="38" viewBox="0 0 40 38" fill="none" xmlns="http://www.w3.org/2000/svg">
<path d="M16.9084 12.3093C15.0552 9.90668 15.6134 7.4587 16.886 5.07873C17.6898 3.58274 17.9577 2.26809 16.4841 1.0441C16.3055 0.908106 16.2162 0.386779 16.3278 0.296113C16.5288 0.114782 16.953 -0.0665499 17.1763 0.0241158C18.8062 0.636109 20.5031 1.15744 21.999 2.01876C25.1471 3.80941 27.5361 6.41605 29.233 9.68001C29.3893 9.99734 29.9922 10.36 30.3047 10.292C32.4035 9.79335 33.8994 10.1107 34.6809 12.5133C35.0605 13.6693 36.1098 14.5986 36.9136 15.596C37.8514 16.7746 38.6328 18.0666 38.4989 19.6079C38.2979 21.7159 38.9677 23.5519 39.7715 25.3652C40.1064 26.1358 40.1287 26.6572 39.4589 27.3372C38.8338 27.9718 38.4542 28.9238 38.0077 29.7398C36.869 31.7571 35.3507 33.1624 32.9617 33.3891C32.6714 33.4118 32.3588 33.6611 32.1579 33.8878C31.756 34.3184 31.3764 34.7944 31.0415 35.2931C30.4164 36.2224 29.8582 36.8571 28.5632 36.0864C27.6701 35.5651 26.5314 35.4971 25.4151 36.2224C23.6735 37.3557 21.6641 37.2424 19.9895 36.1771C18.0247 34.9077 16.4841 34.8397 14.564 36.4037C12.2866 38.2397 9.4957 38.421 6.83875 37.3104C4.69533 36.4037 2.66355 35.2251 0.609434 34.0691C-0.26133 33.5704 -0.149693 33.1851 0.631762 32.5958C1.63649 31.8478 2.59656 31.0091 3.53431 30.1478C5.83402 27.9945 8.08908 25.8185 10.3665 23.6425C10.5451 23.4612 10.679 23.1665 10.7684 22.9172C11.1256 21.7386 11.4158 20.5599 11.7731 19.3812C12.0857 18.3613 12.4206 17.3186 12.7555 16.2986C12.8225 16.0946 12.9341 15.7773 13.0681 15.7546C14.9882 15.4146 15.7473 13.7373 16.9084 12.3093ZM29.6796 15.528C30.5057 16.4119 31.4211 17.2506 32.1579 18.2026C35.7526 22.8719 34.1227 28.3571 28.5855 30.1931C24.5666 31.5304 20.7487 31.0998 17.3326 28.3118C16.819 29.3771 17.1986 30.2838 17.9131 30.8958C18.8955 31.7344 19.9672 32.6411 21.1505 33.0038C23.8298 33.8198 26.5984 34.3184 29.3447 34.9304C29.501 34.9757 29.7689 34.7944 29.8805 34.6584C31.7783 32.1651 33.9441 29.8305 35.1944 26.8612C37.1815 22.1919 35.4847 17.7719 29.6796 15.528ZM1.99373 33.4344C7.06202 37.0157 11.1702 37.5371 14.2961 35.0211C13.135 34.6584 9.45104 28.5158 9.16079 26.3172C6.72711 28.7198 4.38275 31.0545 1.99373 33.4344ZM27.9604 10.3827C27.2459 7.70803 22.5795 2.90275 18.6722 1.88276C19.1411 3.37875 18.5606 4.6254 17.9131 5.87205C17.5782 6.50671 17.3326 7.18671 17.154 7.8667C16.8414 9.15869 16.9753 10.4053 17.7121 11.176C19.543 10.6547 21.1282 9.95201 22.7804 9.81601C24.4773 9.70268 26.1965 10.1787 27.9604 10.3827ZM27.5138 13.08C27.2012 12.7853 27.1119 12.6946 27.0226 12.604C23.9415 10.0653 19.476 10.8587 16.9977 14.236C16.3278 15.1426 15.3454 15.7999 14.5193 16.5706C14.3407 16.7293 14.0951 16.8879 14.0058 17.0919C13.47 18.3159 13.0011 19.5852 12.4652 20.8319C11.6614 22.6905 12.1526 24.3905 13.8718 25.3878C14.2291 25.5918 14.8766 25.6825 15.2115 25.4785C15.5241 25.2972 15.7027 24.7305 15.792 24.2772C16.0376 23.0985 16.0376 21.8519 16.4172 20.7412C17.6228 17.2053 20.1012 14.5986 22.9367 12.3093C23.1823 12.128 23.6289 12.0827 23.9638 12.1507C25.0355 12.4227 26.1295 12.7173 27.5138 13.08ZM28.072 21.2399C27.938 22.6225 27.8711 23.7332 27.6924 24.8212C27.4915 26.0225 26.6877 26.5212 25.482 26.5892C23.2047 26.7252 21.4855 25.7732 20.0119 24.0959C19.7663 23.8239 19.2751 23.5292 18.9401 23.5972C17.5335 23.8012 16.9084 25.1158 17.6675 26.3172C18.0694 26.9745 18.6052 27.6092 19.2304 28.0398C21.3292 29.5131 23.7182 29.7171 26.1519 29.4451C26.3528 29.4225 26.5984 29.3091 26.7324 29.1731C27.9604 27.9038 29.1884 26.6572 30.3271 25.3198C30.5503 25.0478 30.662 24.3679 30.4834 24.1185C29.7689 23.1212 28.9204 22.2145 28.072 21.2399ZM23.6065 35.8597C23.6512 35.7011 23.6959 35.5197 23.7405 35.3611C23.5396 35.2931 23.3609 35.2251 23.16 35.1571C21.0836 34.5451 19.0741 33.7518 17.4219 32.3011C15.8143 30.8958 15.4794 29.3318 16.2385 27.3372C16.3278 27.1105 16.3278 26.8612 16.3278 26.7932C15.3454 26.7932 14.3854 27.0198 13.6039 26.7252C12.7778 26.4305 12.1526 25.6598 11.4158 25.0932C10.2325 26.2492 10.2772 27.7678 11.5498 29.4905C12.3982 30.6238 13.202 31.8024 14.0505 32.9358C14.1844 33.1171 14.4524 33.3211 14.631 33.2984C16.6851 33.0038 18.3373 34.0238 20.1012 34.8171C21.1952 35.3157 22.4232 35.5197 23.6065 35.8597ZM28.273 11.6973C28.2283 11.788 28.1836 11.8787 28.1167 11.9693C28.9428 12.7626 29.6349 13.7826 30.595 14.3266C33.4306 15.8906 35.9535 17.6586 37.1146 21.2626C37.5611 19.2906 37.0699 17.9079 36.1322 16.6159C34.8818 14.9386 33.6538 13.2386 32.3588 11.448C31.1308 11.516 29.7019 11.6067 28.273 11.6973ZM20.9273 15.8906C21.8204 15.1426 22.5795 15.7093 23.2716 16.1399C25.1248 17.3186 26.978 18.5426 28.8311 19.7666C28.2283 16.9786 26.777 14.848 24.0754 13.76C23.8075 13.6466 23.3163 13.692 23.093 13.8733C22.3562 14.4853 21.6417 15.2106 20.9273 15.8906ZM29.4563 28.2665C31.3988 27.3825 32.6268 25.9318 32.7607 23.7332C32.8947 21.0132 31.4881 19.0866 29.4563 17.1146C29.7242 18.1119 29.9922 18.7919 30.0591 19.4946C30.2154 20.9452 30.5727 22.2599 31.5551 23.3932C32.2472 24.2092 32.1356 25.1612 31.4658 25.9998C30.8183 26.7705 30.1261 27.4958 29.4563 28.2665ZM25.5044 20.4239C24.2094 21.2399 23.4726 22.4412 23.3163 23.9825C23.2493 24.5265 23.093 25.1612 23.9638 25.2518C24.8345 25.3425 25.7946 25.7278 26.3528 24.7532C27.1566 23.3932 26.7547 21.6026 25.5044 20.4239ZM17.4442 22.6452C18.7392 22.4185 19.6546 22.0332 20.2128 20.7412C20.8603 19.2679 22.2223 18.6106 23.8521 18.5879C24.0754 18.5879 24.2764 18.5426 24.6336 18.4973C24.3657 18.2933 24.254 18.2026 24.1201 18.1346C21.5971 16.7746 22.4902 16.4799 20.2128 18.6106C19.0295 19.7212 18.0247 20.9906 17.4442 22.6452ZM37.4271 23.4839C36.9136 26.6118 35.7303 29.3091 33.8994 31.7798C34.4353 31.6211 35.0158 31.4398 35.3284 31.0545C36.1098 30.0798 36.735 28.9465 37.5165 27.9718C38.6775 26.5438 38.7891 25.1838 37.4271 23.4839ZM23.6065 19.9932C22.3339 19.9706 20.9943 20.9679 20.8156 22.4412C20.7487 22.9625 21.3738 23.5745 21.6864 24.1865C22.4009 22.5999 23.026 21.2626 23.6065 19.9932Z" fill="white"/>
</svg>
