<svg width="40" height="30" viewBox="0 0 40 30" fill="none" xmlns="http://www.w3.org/2000/svg">
<path d="M24.3951 25.1715C23.042 25.0538 21.728 24.8735 20.4061 24.8421C16.73 24.748 13.2494 25.5715 9.95654 27.2106C9.26824 27.5557 8.84588 27.391 8.50955 26.7008C7.74304 25.1244 6.97653 23.548 6.18655 21.9795C5.93626 21.4932 5.96755 21.0933 6.28041 20.6462C8.17322 17.9248 10.723 16.0033 13.6639 14.5603C13.8517 14.4662 14.0316 14.3799 14.2193 14.2936C14.2036 14.2544 14.1958 14.2152 14.1802 14.176C12.8349 14.576 11.4817 14.9367 10.1521 15.3838C8.4548 15.9484 6.85138 16.7484 5.28708 17.6346C4.59878 18.0268 4.18424 17.8934 3.83227 17.1876C2.61211 14.7171 1.39977 12.2388 0.171786 9.77622C-0.0863249 9.26644 -0.0706818 8.84293 0.336038 8.3959C2.00203 6.54501 3.65237 4.67844 5.30272 2.81187C6.03012 2.00407 6.7497 1.19627 7.46929 0.396315C8.0559 -0.246789 8.76766 -0.0899342 9.04142 0.741395C9.44814 1.9727 9.84703 3.21185 10.2616 4.49806C10.8951 4.36473 11.513 4.19219 12.1544 4.09808C13.8126 3.85496 15.4629 3.5883 17.1289 3.44714C18.5681 3.32949 20.015 3.33734 21.462 3.36087C23.7537 3.39224 26.0142 3.71379 28.2589 4.18435C32.1697 5 35.8693 6.38031 39.3734 8.30178C40.0225 8.65471 40.1555 9.08606 39.827 9.75269C38.6147 12.1526 37.4102 14.5524 36.1978 16.9602C35.7676 17.8072 35.6816 17.8464 34.7586 17.7993C33.0848 17.7131 31.4423 17.9405 29.8233 18.364C29.7763 18.3797 29.7294 18.4111 29.7529 18.3954C30.9026 19.062 32.0837 19.7286 33.2491 20.4266C33.9843 20.8658 34.0625 21.2109 33.6715 21.9795C32.8971 23.5167 32.1071 25.0538 31.3485 26.6067C31.1529 26.9988 30.887 27.2498 30.4881 27.4067C28.5249 28.1909 26.5695 28.9831 24.6063 29.7595C24.3951 29.8379 24.1526 29.8928 23.9336 29.8771C23.3939 29.8222 23.0889 29.3517 23.2453 28.834C23.5895 27.7047 23.9493 26.5832 24.3012 25.4538C24.3325 25.3832 24.3482 25.3283 24.3951 25.1715ZM38.0593 9.45466C25.9829 3.51772 13.9768 3.52556 1.92381 9.45466C2.98754 11.6114 4.01999 13.7054 5.04461 15.7759C15.0093 10.6938 24.9426 10.6781 34.9073 15.7524C35.9397 13.6819 36.98 11.6036 38.0593 9.45466ZM9.761 25.3911C16.5423 22.403 23.2923 22.3559 30.0735 25.3283C30.6993 24.0813 31.325 22.8579 31.9429 21.6266C24.661 16.7876 14.6964 17.0778 7.9464 21.6972C8.54866 22.9285 9.15874 24.1676 9.761 25.3911ZM31.8256 16.1837C29.8389 15.2975 27.86 14.6544 25.8108 14.2544C24.8096 14.0583 23.7772 13.8309 22.776 13.878C20.6329 13.9799 18.5524 14.4975 16.5266 15.2269C14.6729 15.8935 12.9365 16.7798 11.3331 17.964C11.3801 17.9719 11.4113 17.9876 11.427 17.9797C13.2885 17.266 15.2048 16.7327 17.1915 16.5837C18.7323 16.4661 20.281 16.4112 21.8218 16.4739C23.5191 16.5445 25.1851 16.9131 26.8276 17.3758C26.984 17.4229 27.1796 17.4072 27.3438 17.3601C28.2511 17.0935 29.1428 16.7876 30.0579 16.5366C30.6054 16.3876 31.1842 16.3092 31.8256 16.1837ZM7.84472 2.52169C6.67931 3.83927 5.56083 5.09411 4.37978 6.41953C5.8424 5.90191 7.21117 5.40782 8.61123 4.91373C8.36094 4.1373 8.11847 3.36087 7.84472 2.52169ZM28.3137 26.4263C27.5003 26.1518 26.7729 25.9087 26.0298 25.6577C25.8186 26.3322 25.6309 26.9283 25.4197 27.587C26.4052 27.1949 27.3125 26.8263 28.3137 26.4263Z" fill="white"/>
</svg>
