<svg width="40" height="27" viewBox="0 0 40 27" fill="none" xmlns="http://www.w3.org/2000/svg">
<path d="M40 22.8431C39.914 23.1723 39.8514 23.5091 39.742 23.8383C39.1087 25.7138 37.2791 26.9769 35.1759 26.9922C33.2056 27.0075 31.3917 25.7521 30.7037 23.9302C29.9765 22.0087 30.5942 19.7811 32.4941 18.4261C32.283 18.0127 32.0641 17.5994 31.8374 17.1477C30.6959 17.8596 29.8593 18.8089 29.4136 20.0184C29.179 20.6461 29.0696 21.3198 28.9836 21.9858C28.8741 22.7819 28.7568 22.935 27.9515 22.935C24.0031 22.935 20.0547 22.935 16.1142 22.935C15.903 22.935 15.7545 22.935 15.6998 23.2029C15.2541 25.4229 13.2682 27.0152 10.9851 26.9999C8.07662 26.9769 5.87959 24.5043 6.25489 21.6796C6.28616 21.4422 6.35653 21.2126 6.41908 20.9523C5.82486 20.9064 5.2541 20.8528 4.8319 20.4011C4.40188 19.9418 4.19077 19.4213 4.35496 18.7936C4.77717 17.163 5.73886 15.8769 7.02893 14.7976C7.27912 14.5832 7.55278 14.3918 7.88898 14.1392C6.75528 14.1392 5.72322 14.101 4.69116 14.1469C3.51056 14.2005 2.65051 13.412 2.75997 12.1259C2.39249 12.1259 2.03284 12.1106 1.67318 12.1259C0.84441 12.1642 0.265833 11.8503 0 11.0619C0 7.71655 0 4.3789 0 1.0336C0.258014 0.275736 0.805317 -0.00750448 1.62627 0.000150673C4.67553 0.0307713 7.72478 0.0307713 10.774 0.000150673C11.8061 -0.00750448 12.3534 0.650839 12.3378 1.56946C12.2987 4.46311 12.3221 7.35676 12.3221 10.2581C12.3221 10.3882 12.3221 10.5107 12.3221 10.5949C12.7834 10.4494 13.2291 10.2121 13.6904 10.1815C14.7537 10.1203 15.8249 10.1509 16.896 10.1585C17.7795 10.1662 18.6708 10.1279 19.5465 10.2121C20.6802 10.327 21.3604 11.192 21.3135 12.3096C21.2744 13.2665 20.4535 14.0474 19.3901 14.1316C19.3667 14.1316 19.3432 14.1469 19.2572 14.1698C19.2572 14.5679 19.2572 14.9889 19.2572 15.4023C19.2572 15.9229 19.2572 16.4511 19.2729 16.9716C19.312 18.0969 20.172 18.9467 21.3213 18.9543C23.1196 18.9696 24.9179 18.962 26.7162 18.962C26.7787 18.962 26.8413 18.9543 26.9429 18.9467C26.9429 18.7936 26.9429 18.6558 26.9429 18.518C26.9429 16.5889 26.9429 14.6674 26.9429 12.7383C26.9429 11.4982 27.2322 11.0083 28.3581 10.3805C28.2721 10.2045 28.1939 10.0208 28.1001 9.84468C27.6622 8.97965 27.2088 8.11462 26.7787 7.24193C26.5911 6.86683 26.3174 6.67545 25.8874 6.69841C25.5512 6.71372 25.2072 6.71372 24.871 6.69841C24.4801 6.6831 24.2377 6.46876 24.2064 6.13959C24.1751 5.76448 24.3706 5.47359 24.7694 5.45828C25.6998 5.40469 26.6849 5.25159 27.4199 6.00179C27.7404 6.32331 27.9359 6.75965 28.1704 7.15007C28.3034 7.36441 28.405 7.60172 28.5457 7.87731C28.8976 7.28021 29.4058 6.91276 30.0469 6.83621C30.6255 6.76731 31.2197 6.78262 31.7983 6.81324C32.1658 6.83621 32.3847 7.11945 32.3925 7.54814C32.4081 8.37489 32.4081 9.2093 32.3925 10.0361C32.3847 10.549 32.1267 10.771 31.6028 10.771C31.0946 10.771 30.5864 10.771 30.0156 10.771C30.8131 12.3403 31.595 13.8713 32.3769 15.41C32.932 15.2798 33.4636 15.1344 34.0031 15.0349C35.4417 14.7823 36.8256 14.9736 38.1626 15.5248C38.5536 15.6856 38.6943 16.0301 38.5457 16.3669C38.405 16.696 38.061 16.8338 37.6544 16.6731C36.7475 16.3133 35.8092 16.1296 34.8319 16.2061C34.222 16.2597 33.62 16.4052 32.9554 16.52C33.2056 17.0329 33.4089 17.4386 33.5887 17.806C34.1908 17.7525 34.7537 17.6453 35.3167 17.6529C37.6779 17.6912 39.57 19.36 39.9062 21.6566C39.914 21.7025 39.9531 21.7408 39.9765 21.7867C40 22.1236 40 22.4833 40 22.8431ZM1.29007 10.8092C4.53479 10.8092 7.75606 10.8092 11.0008 10.8092C11.0008 8.53565 11.0008 6.27738 11.0008 4.01145C7.74824 4.01145 4.52697 4.01145 1.29007 4.01145C1.29007 6.28503 1.29007 8.528 1.29007 10.8092ZM10.8757 19.628C12.3612 19.628 13.8468 19.628 15.3245 19.628C15.3636 19.628 15.4027 19.628 15.4418 19.628C16.0672 19.6203 16.3722 19.3907 16.4113 18.7783C16.4347 18.3802 16.3878 17.9668 16.3018 17.5687C15.8483 15.5784 14.4488 13.9249 11.7983 14.1622C9.04613 14.3995 6.5129 16.2827 5.66067 18.8395C5.48866 19.3677 5.66849 19.6203 6.23143 19.6203C7.77951 19.628 9.3276 19.628 10.8757 19.628ZM38.6787 22.2843C38.6708 20.3935 37.1071 18.8548 35.1681 18.8854C33.2213 18.916 31.7201 20.4241 31.7123 22.3073C31.7045 24.1215 33.1587 25.7138 35.1681 25.7291C37.3104 25.7368 38.7177 24.0373 38.6787 22.2843ZM27.9281 20.1791C27.7639 20.2021 27.6231 20.2327 27.4824 20.2327C25.4652 20.2327 23.4402 20.248 21.423 20.2327C19.6325 20.2174 18.2565 19.0691 18.0141 17.3238C17.8968 16.4434 17.9672 15.5401 17.9515 14.6521C17.9515 14.4837 17.9515 14.3076 17.9515 14.1469C17.2244 14.1469 16.5598 14.1469 15.8561 14.1469C15.9187 14.2234 15.9421 14.2617 15.9812 14.3C17.2244 15.5937 17.7873 17.1247 17.7248 18.8931C17.6935 19.7658 17.0524 20.5772 16.2002 20.8069C16.0125 20.8528 15.8249 20.8681 15.6372 20.8911C15.6138 21.58 15.6841 21.6719 16.3409 21.6719C17.9281 21.6796 19.5231 21.6719 21.1102 21.6719C23.1822 21.6719 25.2541 21.6642 27.326 21.6719C27.545 21.6719 27.6935 21.6413 27.7326 21.381C27.7717 20.9906 27.8499 20.5925 27.9281 20.1791ZM12.455 20.8987C13.2213 21.9245 13.19 22.9809 12.4316 23.7082C11.6888 24.4201 10.5551 24.489 9.75762 23.8842C8.83503 23.1723 8.72557 22.2078 9.46833 20.9217C8.94449 20.9217 8.4441 20.914 7.93589 20.9293C7.86552 20.9293 7.76388 21.0289 7.7326 21.1054C7.45113 21.7638 7.44331 22.4298 7.59969 23.1187C7.95152 24.6344 9.53088 25.9205 11.4386 25.6832C13.706 25.4 15.0352 23.0575 14.2533 21.1131C14.2142 21.0136 14.05 20.914 13.9484 20.9064C13.4715 20.8834 12.9945 20.8987 12.455 20.8987ZM11.0086 1.28622C7.75606 1.28622 4.53479 1.28622 1.29007 1.28622C1.29007 1.76849 1.29007 2.22015 1.29007 2.68711C4.52697 2.68711 7.76388 2.68711 11.0086 2.68711C11.0086 2.20484 11.0086 1.75318 11.0086 1.28622ZM28.2486 19.2146C28.9836 17.8749 29.6638 17.1247 31.2432 15.9841C30.8679 15.2492 30.4926 14.5067 30.1173 13.7718C29.7342 13.0292 29.3511 12.279 28.9758 11.5441C28.4206 11.7125 28.233 12.0417 28.2486 12.5393C28.2721 13.2512 28.2564 13.9632 28.2564 14.6827C28.2486 16.1908 28.2486 17.6989 28.2486 19.2146ZM16.5051 11.437C15.5903 11.437 14.6833 11.4293 13.7686 11.437C13.3698 11.4446 13.0649 11.7202 13.0258 12.0876C12.9945 12.4168 13.2447 12.7383 13.62 12.8225C13.7686 12.8532 13.9249 12.8761 14.0813 12.8761C15.7467 12.8838 17.412 12.8838 19.0774 12.8761C19.2807 12.8761 19.4996 12.8302 19.6716 12.7383C19.9765 12.5699 20.0704 12.2714 19.9765 11.9422C19.8749 11.5901 19.6013 11.437 19.2416 11.437C18.3268 11.4293 17.4199 11.437 16.5051 11.437ZM11.7045 12.1183C11.5559 12.1183 11.4464 12.1183 11.3292 12.1183C9.18686 12.1183 7.03675 12.1183 4.89445 12.1183C4.72244 12.1183 4.54261 12.08 4.39406 12.1336C4.26114 12.1795 4.06568 12.3173 4.06568 12.4168C4.06568 12.5546 4.18296 12.7536 4.30805 12.8149C4.46443 12.8914 4.68335 12.8761 4.87881 12.8761C6.68491 12.8838 8.49101 12.8761 10.2971 12.8761C10.8131 12.8761 11.3292 12.8761 11.853 12.8761C11.7983 12.6158 11.7592 12.3939 11.7045 12.1183ZM31.0711 8.05338C30.5708 8.09165 30.0078 7.89262 29.742 8.42848C29.6403 8.63517 29.6794 9.01027 29.8124 9.20165C30.1173 9.63799 30.6177 9.43896 31.0711 9.46958C31.0711 8.97965 31.0711 8.53565 31.0711 8.05338ZM10.9773 23.0039C11.3917 23.0116 11.6888 22.736 11.7045 22.3302C11.7201 21.9322 11.4308 21.6183 11.0242 21.6107C10.5864 21.603 10.2815 21.8862 10.2815 22.3073C10.2815 22.713 10.5629 22.9962 10.9773 23.0039Z" fill="white"/>
<path d="M35.1837 24.2899C34.0891 24.2899 33.1899 23.4019 33.1899 22.3149C33.1899 21.2049 34.0891 20.3169 35.2071 20.3169C36.3174 20.3169 37.24 21.2355 37.2322 22.3149C37.2243 23.4019 36.2939 24.2899 35.1837 24.2899ZM35.1759 22.9962C35.5981 23.0039 35.9343 22.69 35.9265 22.2996C35.9186 21.9321 35.6137 21.6183 35.2384 21.6106C34.8084 21.5953 34.48 21.8939 34.4722 22.2996C34.4722 22.6976 34.7693 22.9885 35.1759 22.9962Z" fill="white"/>
</svg>
