<svg width="32" height="27" viewBox="0 0 32 27" fill="none" xmlns="http://www.w3.org/2000/svg">
<path d="M12.4166 27C8.27547 22.9393 4.16126 18.8984 0 14.8179C0.766371 14.0784 1.53274 13.3389 2.29239 12.5994C5.96963 8.99428 9.64015 5.38257 13.3241 1.77086C13.9896 1.11719 14.8098 0.754037 15.7442 0.661598C16.5845 0.575762 17.4249 0.52294 18.2652 0.456912C19.3811 0.371077 20.4971 0.278638 21.613 0.192802C22.5071 0.126775 23.4079 0.0277332 24.302 0.00132216C25.9356 -0.0514999 27.5289 1.48694 27.4549 3.08481C27.4079 4.05542 27.3205 5.01942 27.26 5.99002C27.2129 6.72953 27.1726 7.47564 27.1255 8.21515C27.1121 8.40003 27.0785 8.5783 27.0448 8.8094C26.386 8.36702 25.7407 7.95765 25.2903 7.33699C25.2365 7.26436 25.1827 7.15871 25.1894 7.07948C25.2432 6.38619 25.3171 5.6929 25.3642 4.99961C25.4113 4.31953 25.4516 3.64604 25.4449 2.96596C25.4382 2.51697 24.8331 1.98875 24.376 1.98875C23.8315 1.98875 23.2869 2.01516 22.7424 2.05478C22.3592 2.08119 21.976 2.14722 21.5861 2.18023C20.8803 2.23305 20.1677 2.26607 19.4551 2.31889C18.3391 2.40473 17.2232 2.47736 16.114 2.5896C15.4484 2.65563 14.9106 2.99237 14.4468 3.45456C11.63 6.19471 8.82672 8.94806 6.02341 11.7014C5.02847 12.6786 4.02681 13.6624 3.03187 14.6396C2.97137 14.6991 2.91087 14.7651 2.87053 14.8113C6.0503 17.9344 9.22335 21.0509 12.4166 24.1872C16.4837 20.1992 20.5777 16.1847 24.7256 12.124C25.2096 12.3617 25.7945 12.6456 26.4465 12.9691C26.2247 13.2861 26.0432 13.6294 25.781 13.8935C21.3777 18.2315 16.961 22.5629 12.551 26.901C12.504 26.9274 12.4636 26.9604 12.4166 27Z" fill="white"/>
<path d="M28.6311 3.32959C29.0143 3.69934 29.4513 4.02948 29.7807 4.44546C30.3252 5.13875 30.8361 5.86505 31.2865 6.62437C31.8781 7.61478 32.1 8.71744 31.9588 9.85972C31.7974 11.1605 30.8697 12.1179 29.5118 12.3424C27.8849 12.6131 26.4732 12.0386 25.1556 11.2133C23.522 10.1899 22.2514 8.82308 21.4044 7.09976C21.317 6.91489 21.1287 6.75642 20.954 6.64417C20.1943 6.16877 20.0935 5.0199 20.5103 4.37283C21.0077 3.6003 21.9422 3.36921 22.8094 3.78518C23.7304 4.22756 23.9186 5.29061 23.5489 6.01691C23.4077 6.28762 23.4413 6.4725 23.5758 6.68379C24.2682 7.77324 25.1219 8.69763 26.2244 9.40412C26.8429 9.79369 27.4816 10.1436 28.2076 10.2625C28.5639 10.3219 28.9538 10.3351 29.2967 10.2427C29.895 10.0908 29.9756 9.48996 29.8546 8.83629C29.6933 7.93831 29.2496 7.16579 28.6916 6.4593C28.5236 6.24801 28.4362 6.06313 28.4631 5.77261C28.5303 5.06611 28.5236 4.35302 28.5437 3.63992C28.5437 3.55408 28.5437 3.47485 28.5437 3.38901C28.5639 3.36921 28.5975 3.3494 28.6311 3.32959Z" fill="white"/>
<path d="M19.2401 12.8311C19.2401 13.2404 19.2401 13.63 19.2401 14.0394C15.6637 14.0394 12.1007 14.0394 8.51758 14.0394C8.51758 13.6366 8.51758 13.247 8.51758 12.8311C12.0805 12.8311 15.6435 12.8311 19.2401 12.8311Z" fill="white"/>
<path d="M13.9291 14.7192C15.3274 14.8051 16.1476 15.7229 16.1476 16.9312C16.1476 18.1857 15.24 19.0903 13.9157 19.1365C12.625 19.1827 11.5628 18.0404 11.6435 16.7727C11.7241 15.67 12.7124 14.7192 13.9291 14.7192ZM13.8821 15.9738C13.351 15.9804 12.9342 16.4095 12.9409 16.951C12.9409 17.466 13.3712 17.8952 13.8821 17.8952C14.393 17.8952 14.9039 17.4132 14.8905 16.9312C14.877 16.4492 14.3661 15.9672 13.8821 15.9738Z" fill="white"/>
<path d="M11.6637 9.91892C11.5965 8.73703 12.6452 7.74001 13.8082 7.7136C15.2939 7.68059 16.1678 8.80306 16.1544 9.90572C16.1342 11.2065 15.1662 12.1375 13.8822 12.1308C12.7057 12.1242 11.6368 11.2461 11.6637 9.91892ZM12.9343 9.90572C12.9477 10.5924 13.3914 10.8301 13.909 10.8829C14.3796 10.9291 14.8771 10.3943 14.8771 9.90572C14.8771 9.41051 14.4132 8.97473 13.8822 8.97473C13.3712 8.96813 12.9343 9.3907 12.9343 9.90572Z" fill="white"/>
</svg>
