<svg width="25" height="35" viewBox="0 0 25 35" fill="none" xmlns="http://www.w3.org/2000/svg">
<path d="M4.69454 31.4644C4.67366 31.3172 4.66845 31.2056 4.64757 31.1041C3.75508 26.8156 2.85738 22.5272 1.97011 18.2387C1.92836 18.0306 1.96489 17.8073 1.96489 17.5383C1.99099 17.5789 1.98577 17.5536 1.97011 17.5485C1.2603 17.2744 0.941925 16.7669 0.988898 16.0209C1.02021 15.5337 0.994117 15.0414 0.994117 14.5491C0.994117 13.8031 1.46907 13.2651 2.23107 13.1535C2.39287 13.1281 2.55988 13.1179 2.7269 13.1179C4.08389 13.1129 5.44089 13.1179 6.79789 13.1179C6.88139 13.1179 6.9649 13.1179 7.04841 13.1179C7.05363 13.1027 7.05885 13.0875 7.06407 13.0723C6.87095 12.9555 6.67262 12.8388 6.48473 12.717C4.87721 11.6867 3.92732 10.1947 3.33233 8.45899C2.78953 6.89078 2.57554 5.2769 2.55466 3.63764C2.54422 2.59724 2.61207 1.56192 2.65383 0.521528C2.6747 0.0901446 2.92001 -0.0722586 3.3532 0.0292434C5.15383 0.425101 6.89705 0.963062 8.53067 1.80553C10.1173 2.62262 11.5108 3.67317 12.5338 5.13479C13.014 5.82501 13.3845 6.56597 13.6246 7.36784C13.6403 7.42366 13.6612 7.47442 13.6873 7.54039C13.7186 7.52009 13.7499 7.50994 13.7603 7.48964C14.7363 6.00264 16.1873 5.09927 17.8 4.40398C18.9482 3.90662 20.1486 3.56659 21.3699 3.29761C21.824 3.19611 22.038 3.36358 22.0693 3.82034C22.1737 5.20585 22.1737 6.59135 21.9127 7.9667C21.5735 9.75821 20.7541 11.2858 19.3031 12.4632C19.0265 12.6865 18.7186 12.8794 18.3845 13.1129C18.5046 13.1179 18.5933 13.1281 18.6873 13.1281C19.8772 13.1281 21.0724 13.1281 22.2624 13.1281C22.633 13.1281 22.9931 13.1687 23.3167 13.3565C23.7551 13.6102 24.0004 13.9705 24.0004 14.473C24.0004 15.0566 23.99 15.6403 24.0056 16.2239C24.0161 16.8532 23.7081 17.2643 23.1288 17.5028C23.0714 17.5282 23.0192 17.5485 22.9618 17.5739C22.9566 17.5789 22.9514 17.584 22.9409 17.5942C23.1027 18.3047 22.8052 18.9594 22.6695 19.6293C21.8866 23.4661 21.0777 27.2978 20.2791 31.1295C20.2582 31.231 20.253 31.3426 20.2374 31.4746C20.634 31.4746 20.9942 31.4796 21.3595 31.4746C22.3825 31.4644 23.0036 32.0684 22.9983 33.0631C22.9983 33.2305 22.9983 33.4031 22.9931 33.5706C22.9722 34.3927 22.3825 34.9764 21.537 34.9916C20.561 35.0068 19.5902 34.9967 18.6142 34.9967C13.6977 34.9967 8.78641 34.9967 3.86991 34.9967C3.68723 34.9967 3.50456 34.9967 3.32189 34.9916C2.55466 34.951 1.95445 34.3572 1.92314 33.6112C1.9127 33.3727 1.9127 33.1392 1.91792 32.9007C1.9388 32.114 2.57554 31.4949 3.38974 31.4847C3.81249 31.4543 4.23003 31.4644 4.69454 31.4644ZM12.4085 17.6804C9.39184 17.6804 6.37513 17.6804 3.35842 17.6804C3.02439 17.6804 2.90435 17.8276 2.97742 18.1727C3.36364 20.0099 3.74986 21.8471 4.13087 23.6843C4.64235 26.1254 5.15905 28.5665 5.65488 31.0077C5.74882 31.4746 5.7436 31.4492 6.21855 31.4492C10.3939 31.4492 14.5641 31.4492 18.7395 31.4492C19.1831 31.4492 19.1779 31.4492 19.2666 31.0178C19.7729 28.5767 20.2843 26.1356 20.7958 23.6944C21.182 21.8471 21.5683 20.0048 21.9545 18.1575C22.0171 17.853 21.9493 17.7515 21.6413 17.7058C21.4691 17.6804 21.2969 17.6804 21.1194 17.6804C18.2175 17.6804 15.3104 17.6804 12.4085 17.6804ZM3.65592 1.00874C3.63504 1.86135 3.58807 2.63277 3.59851 3.39911C3.61938 5.08912 3.7864 6.75883 4.37617 8.36256C4.85634 9.66178 5.57137 10.8037 6.7196 11.6512C8.36365 12.8692 10.2426 13.0773 12.2154 12.8134C12.3042 12.8033 12.4242 12.6967 12.4607 12.6104C12.9252 11.5294 13.0453 10.3824 13.0088 9.2304C12.9513 7.40844 12.1841 5.86561 10.8584 4.58668C9.54319 3.31791 7.96177 2.47037 6.24465 1.84613C5.41479 1.5467 4.56928 1.30309 3.65592 1.00874ZM12.5181 16.7111C15.6392 16.7111 18.7603 16.7111 21.8814 16.7111C22.0902 16.7111 22.299 16.7162 22.5077 16.7009C22.8679 16.6756 22.9983 16.5335 22.9983 16.1884C22.9983 15.6809 22.9879 15.1733 23.0036 14.6658C23.014 14.407 22.8887 14.2649 22.6539 14.204C22.5286 14.1735 22.3981 14.1634 22.2676 14.1634C16.4273 14.1634 10.5818 14.1634 4.74151 14.1634C4.01082 14.1634 3.28013 14.1583 2.54944 14.1685C2.14234 14.1735 1.99099 14.3258 1.98577 14.6963C1.98577 15.1936 1.98577 15.6961 1.98577 16.1934C1.98577 16.4878 2.10059 16.6299 2.39287 16.6857C2.51291 16.7111 2.63295 16.706 2.75821 16.706C6.015 16.7111 9.26658 16.7111 12.5181 16.7111ZM21.182 4.31263C20.8324 4.40398 20.5244 4.48518 20.2165 4.57146C18.7499 4.99269 17.3459 5.54588 16.1142 6.44417C14.0213 7.97178 13.4159 10.3977 14.5641 12.651C14.6371 12.7982 14.7207 12.8743 14.8981 12.8591C15.2426 12.8286 15.5923 12.8388 15.9367 12.7931C17.7948 12.5647 19.2144 11.6664 20.1173 10.0729C21.1299 8.29151 21.2499 6.34267 21.182 4.31263ZM12.4607 34.0679C14.6424 34.0679 16.824 34.0679 19.0056 34.0679C19.8251 34.0679 20.6392 34.0679 21.4587 34.0629C21.8188 34.0629 21.9806 33.8954 21.9962 33.5503C22.0015 33.4133 21.9962 33.2813 21.9962 33.1443C22.0015 32.6418 21.8449 32.4947 21.3282 32.4947C20.2948 32.4997 19.2614 32.5099 18.2228 32.515C15.7802 32.515 13.3376 32.515 10.895 32.515C9.12044 32.515 7.35112 32.5048 5.57659 32.4997C4.88243 32.4997 4.18306 32.4947 3.4889 32.4997C3.10268 32.4997 2.92523 32.6723 2.92001 33.0428C2.91479 33.2102 2.92001 33.3828 2.92523 33.5503C2.94088 33.9005 3.09746 34.0578 3.45759 34.0679C3.58807 34.073 3.71855 34.073 3.84903 34.073C6.72482 34.0679 9.59017 34.0679 12.4607 34.0679ZM13.6403 13.0976C13.5777 12.9606 13.5307 12.8489 13.4524 12.6764C13.3845 12.854 13.3428 12.9657 13.2906 13.0976C13.4054 13.0976 13.4994 13.0976 13.6403 13.0976Z" fill="white"/>
</svg>
