<svg width="29" height="33" viewBox="0 0 29 33" fill="none" xmlns="http://www.w3.org/2000/svg">
<path d="M15.36 0C16.003 0.0880603 16.656 0.136983 17.2891 0.264181C20.079 0.802328 22.5622 1.9569 24.6298 3.91379C26.4304 5.61629 27.3999 7.71996 27.6868 10.1563C27.9242 12.1817 27.7758 14.2071 27.7165 16.2422C27.7066 16.4184 27.7659 16.6238 27.8748 16.7706C28.8047 18.0719 28.7256 19.7353 27.6571 20.929C27.5681 21.0269 27.479 21.1834 27.479 21.3106C27.4889 23.2577 27.4691 25.195 27.5582 27.1324C27.6175 28.3456 27.8451 29.5394 28.4683 30.6254C28.5673 30.8015 28.6959 30.9581 28.8245 31.1244C29.151 31.5647 29.0125 32.005 28.4881 32.1909C26.1534 33.0128 23.779 33.2085 21.3354 32.778C19.6536 32.4845 18.0608 31.9463 16.557 31.1538C16.3988 31.0755 16.1811 31.0657 15.9931 31.0853C15.0038 31.2125 14.0244 31.2125 13.0351 31.0853C12.8076 31.0559 12.5404 31.1147 12.3327 31.2223C9.32518 32.7193 6.17917 33.3357 2.8353 32.7878C2.03396 32.6508 1.2623 32.3964 0.480741 32.1616C0.025658 32.0246 -0.142525 31.555 0.134482 31.2125C0.98529 30.1656 1.23262 28.9229 1.4008 27.6509C1.67781 25.5375 1.61845 23.4045 1.52941 21.2812C1.52941 21.1638 1.46016 21.0366 1.38101 20.9486C0.272986 19.7059 0.183948 18.0817 1.14358 16.7412C1.24251 16.6043 1.28208 16.4086 1.28208 16.2422C1.28208 14.3832 1.19304 12.5241 1.27219 10.6749C1.35133 8.88431 1.8361 7.17203 2.90455 5.68478C3.92354 4.25625 5.33826 3.46371 7.07944 3.21909C7.34656 3.17996 7.58399 3.14082 7.79175 2.91578C9.31529 1.22306 11.2148 0.254397 13.51 0.0489224C13.5693 0.0391379 13.6287 0.019569 13.6979 0C14.2717 0 14.8159 0 15.36 0ZM24.5606 16.3205C24.5606 15.8117 24.5408 15.4008 24.5705 14.9996C24.5902 14.7941 24.6595 14.5202 24.798 14.4028C24.9563 14.2853 25.2531 14.2462 25.4509 14.3049C25.7576 14.3832 25.8566 14.6963 25.8269 14.98C25.7774 15.3714 25.9159 15.5867 26.3116 15.6258C26.3512 15.6258 26.3908 15.6454 26.4403 15.6552C26.46 15.5867 26.4699 15.5475 26.4699 15.5084C26.5095 13.7961 26.6183 12.0741 26.4304 10.3618C26.1237 7.59276 24.798 5.4206 22.5226 3.80616C20.0097 2.03517 17.2001 1.19371 14.1134 1.27198C11.937 1.33069 10.1166 2.19172 8.70191 3.82573C8.35565 4.2269 7.97972 4.4128 7.45538 4.45194C6.24842 4.54 5.20965 5.02922 4.38852 5.90004C3.32996 7.02526 2.88477 8.43422 2.64733 9.92146C2.35054 11.7512 2.48904 13.5906 2.53851 15.4203C2.53851 15.4888 2.55829 15.5573 2.58797 15.6943C2.80562 15.5769 3.13209 15.5084 3.16177 15.3714C3.28049 14.8626 3.62675 14.7452 4.06205 14.6963C4.88317 14.5887 5.67462 14.3636 6.39682 13.9527C7.48506 13.3363 8.20726 12.4165 8.7217 11.3011C9.04817 10.5966 9.46368 10.5281 10.0177 11.0662C11.1356 12.1425 12.392 13.0427 13.7672 13.7766C16.0129 14.98 18.4169 15.7334 20.9496 16.0466C22.1269 16.1737 23.314 16.2227 24.5606 16.3205ZM24.521 17.524C18.9413 17.5142 13.876 16.0759 9.63187 12.4361C9.25593 12.9253 8.93935 13.4145 8.54362 13.845C7.52463 14.9605 6.21874 15.5671 4.73478 15.8509C4.51713 15.89 4.45777 15.9781 4.45777 16.1835C4.46766 17.4359 4.45777 18.6981 4.46766 19.9506C4.48745 22.5337 5.32836 24.833 7.1388 26.7116C9.83962 29.5198 13.1439 30.4982 16.9528 29.6176C19.5547 29.0208 21.5333 27.5042 23.0073 25.3027C24.5804 22.925 24.6793 20.2637 24.521 17.524ZM26.1534 21.8683C25.6587 21.9564 25.6587 21.9564 25.5895 22.2401C24.6793 26.1735 22.3346 28.8936 18.5752 30.4395C18.4862 30.4787 18.3972 30.5178 18.2784 30.5765C21.5432 31.9953 25.0849 32.0344 27.3405 31.2125C26.8558 30.3515 26.5887 29.4122 26.4304 28.4435C26.1336 26.6138 26.1039 24.7645 26.1534 22.9153C26.1632 22.5728 26.1534 22.2303 26.1534 21.8683ZM2.85509 21.8781C2.85509 22.0542 2.85509 22.2108 2.85509 22.3771C2.8353 23.8937 2.8353 25.4005 2.76605 26.9171C2.71658 28.101 2.49893 29.2654 2.07353 30.371C1.96471 30.6646 1.81631 30.9483 1.67781 31.2419C4.62595 32.2105 8.40512 31.6724 10.7003 30.5569C10.6014 30.5178 10.5124 30.4689 10.4233 30.4395C6.72329 28.9229 4.38852 26.242 3.45857 22.3967C3.37942 22.0347 3.25081 21.8585 2.85509 21.8781ZM3.18156 16.8097C2.29118 17.0641 1.70749 17.935 1.78663 18.8547C1.85588 19.7059 2.49893 20.4985 3.18156 20.5865C3.18156 19.3341 3.18156 18.0817 3.18156 16.8097ZM25.8368 16.8097C25.8368 18.0915 25.8368 19.3537 25.8368 20.6159C26.6777 20.3811 27.2614 19.5788 27.2515 18.6981C27.2416 17.8273 26.6678 17.0446 25.8368 16.8097Z" fill="white"/>
<path d="M14.6874 27.0833C13.3518 27.0539 12.3427 26.6723 11.5018 25.8896C11.294 25.6939 11.1555 25.4591 11.294 25.2047C11.3831 25.0285 11.5908 24.8231 11.7689 24.7937C11.9668 24.7644 12.2042 24.9111 12.412 25.009C12.867 25.234 13.2924 25.5667 13.7772 25.7037C14.7269 25.9776 15.6173 25.7722 16.4088 25.1753C16.5374 25.0775 16.6561 24.9698 16.7946 24.8818C17.0914 24.6861 17.4278 24.735 17.6355 24.9894C17.8433 25.2438 17.8334 25.5862 17.5762 25.8309C17.032 26.3788 16.3791 26.7506 15.6272 26.9365C15.2612 27.0246 14.8852 27.0539 14.6874 27.0833Z" fill="white"/>
<path d="M8.57339 17.4751C9.16698 17.4947 9.7111 17.6903 10.1563 18.101C10.4234 18.3455 10.4531 18.7074 10.2354 18.9617C10.0178 19.2258 9.68142 19.2649 9.36484 19.0595C8.67233 18.5998 8.47446 18.5998 7.76216 19.0693C7.45547 19.2649 7.129 19.2258 6.91135 18.9813C6.6937 18.727 6.71349 18.3651 6.97071 18.1108C7.42579 17.7 7.96002 17.4947 8.57339 17.4751Z" fill="white"/>
<path d="M20.4454 17.4751C21.0587 17.5044 21.5633 17.6903 21.9887 18.0717C22.2855 18.3358 22.3349 18.6781 22.1173 18.9519C21.8898 19.2453 21.5435 19.2747 21.1972 19.0302C20.6036 18.6096 20.2871 18.6194 19.6737 19.0399C19.3373 19.2649 19.001 19.2355 18.7734 18.9617C18.5459 18.6781 18.5953 18.326 18.902 18.0521C19.367 17.6707 19.8913 17.4849 20.4454 17.4751Z" fill="white"/>
</svg>
