<svg width="13" height="13" viewBox="0 0 13 13" fill="none" xmlns="http://www.w3.org/2000/svg">
<path d="M0 5C0 2.23858 2.23858 0 5 0H8C10.7614 0 13 2.23858 13 5V8C13 10.7614 10.7614 13 8 13H5C2.23858 13 0 10.7614 0 8V5Z" fill="#777777"/>
<path d="M1.73461 6.50095C1.73461 5.86211 1.73461 5.22327 1.73461 4.58443C1.73677 3.14866 2.73314 1.98142 4.15188 1.76703C4.40747 1.72805 4.66956 1.73671 4.92948 1.73671C6.11646 1.73454 7.30344 1.73021 8.49042 1.73671C9.79003 1.74537 10.9294 2.67873 11.1958 3.94992C11.2348 4.13832 11.2608 4.33539 11.2608 4.52812C11.2651 5.86211 11.2694 7.19826 11.2608 8.53225C11.2521 9.83159 10.2276 11.0205 8.94311 11.2132C8.58139 11.2674 8.20883 11.2609 7.84278 11.263C6.75977 11.2695 5.67676 11.2652 4.59592 11.2652C3.75334 11.2652 3.03855 10.9599 2.46889 10.3405C2.00103 9.82726 1.74977 9.21874 1.73894 8.52359C1.72594 7.8501 1.73677 7.17444 1.73461 6.50095ZM2.16781 6.48796C2.16781 6.86043 2.16565 7.23075 2.16781 7.60322C2.16998 7.97787 2.15482 8.35468 2.19164 8.72715C2.3021 9.89656 3.33096 10.8234 4.50711 10.8278C5.82188 10.8321 7.13449 10.8321 8.44926 10.8299C9.77486 10.8256 10.8275 9.77529 10.8319 8.44779C10.8362 7.14196 10.834 5.83396 10.8297 4.52812C10.8297 4.36787 10.8102 4.20329 10.7756 4.0452C10.5373 2.93643 9.57559 2.16766 8.4276 2.16766C7.21463 2.16766 6.00166 2.16549 4.78869 2.16982C4.58075 2.16982 4.36848 2.16982 4.16271 2.20447C2.9779 2.40803 2.16998 3.37821 2.16781 4.58443C2.16781 5.21894 2.16781 5.85345 2.16781 6.48796Z" fill="white"/>
<path d="M4.11722 6.49214C4.12588 5.15815 5.19806 4.11219 6.55182 4.11868C7.82544 4.12518 8.89329 5.22096 8.88462 6.50947C8.87379 7.83696 7.79945 8.89376 6.47168 8.88293C5.17207 8.8721 4.11072 7.79148 4.11722 6.49214ZM8.44925 6.50081C8.44492 5.40936 7.57635 4.54746 6.48251 4.54963C5.41683 4.55396 4.54392 5.43535 4.55042 6.50081C4.55692 7.59658 5.42549 8.44982 6.53233 8.44548C7.58068 8.44332 8.45359 7.5576 8.44925 6.50081Z" fill="white"/>
<path d="M9.53244 3.90427C9.53244 4.14248 9.33317 4.33738 9.09707 4.33522C8.85881 4.33305 8.66387 4.13599 8.66603 3.89994C8.6682 3.66173 8.86314 3.46899 9.1014 3.46899C9.33966 3.46899 9.53461 3.66606 9.53244 3.90427Z" fill="white"/>
</svg>
