<svg width="7" height="12" viewBox="0 0 7 12" fill="none" xmlns="http://www.w3.org/2000/svg">
<path d="M3.49554 6.31669C1.72706 6.31333 0.299333 4.8962 0.30274 3.14996C0.306148 1.39701 1.7441 -0.00669229 3.52961 2.40011e-05C5.29809 0.00674029 6.719 1.42388 6.71559 3.17347C6.70537 4.9197 5.26742 6.32341 3.49554 6.31669ZM4.79719 3.17347C4.804 2.47498 4.22814 1.89737 3.5228 1.8873C2.81745 1.87723 2.22796 2.44811 2.21774 3.1466C2.20751 3.8451 2.78338 4.4227 3.49554 4.43277C4.19747 4.43949 4.79037 3.86861 4.79719 3.17347Z" fill="#777777"/>
<path d="M4.76831 8.74467C5.24195 9.21145 5.69855 9.65472 6.15175 10.1014C6.2676 10.2155 6.38686 10.3297 6.49931 10.4472C6.86731 10.82 6.87072 11.3741 6.51293 11.7301C6.15515 12.086 5.58611 12.0894 5.21469 11.7233C4.65246 11.1692 4.09704 10.6118 3.52459 10.0376C3.41214 10.145 3.31332 10.2357 3.21791 10.3297C2.74087 10.7998 2.26383 11.2733 1.78337 11.7401C1.45966 12.0524 0.989428 12.0827 0.628237 11.8342C0.263638 11.5823 0.130745 11.1357 0.31134 10.736C0.362452 10.6219 0.447643 10.5178 0.536237 10.4271C1.05758 9.90323 1.58574 9.38943 2.11049 8.86892C2.14456 8.83534 2.17864 8.7984 2.22293 8.75474C1.95374 8.66743 1.69137 8.60027 1.44263 8.49617C1.11551 8.35848 0.791797 8.20401 0.485125 8.02939C0.00807903 7.75738 -0.131624 7.23015 0.130751 6.79023C0.389719 6.35032 0.934907 6.20927 1.40173 6.48464C2.29789 7.00851 3.25539 7.18985 4.28104 6.99508C4.73083 6.91112 5.15335 6.74993 5.54181 6.51486C5.78374 6.36711 6.0393 6.29659 6.32212 6.37718C6.69013 6.47793 6.91842 6.71635 6.98317 7.08911C7.05132 7.47529 6.91161 7.7876 6.58108 7.99916C6.07678 8.32826 5.52137 8.5499 4.93528 8.70437C4.89099 8.71109 4.85009 8.72116 4.76831 8.74467Z" fill="#777777"/>
</svg>
