<svg width="11" height="11" viewBox="0 0 11 11" fill="none" xmlns="http://www.w3.org/2000/svg">
<path d="M8.72157 7.69433C8.31342 7.69433 7.94824 7.85412 7.66898 8.10445L3.8399 5.89408C3.86676 5.77158 3.88824 5.64908 3.88824 5.52125C3.88824 5.39342 3.86676 5.27092 3.8399 5.14842L7.62602 2.95936C7.91602 3.22567 8.29731 3.39078 8.72157 3.39078C9.61305 3.39078 10.3327 2.67707 10.3327 1.79292C10.3327 0.908777 9.61305 0.195068 8.72157 0.195068C7.83009 0.195068 7.11046 0.908777 7.11046 1.79292C7.11046 1.92075 7.13194 2.04325 7.15879 2.16576L3.37268 4.35482C3.08268 4.08851 2.70139 3.9234 2.27713 3.9234C1.38565 3.9234 0.666016 4.63711 0.666016 5.52125C0.666016 6.4054 1.38565 7.11911 2.27713 7.11911C2.70139 7.11911 3.08268 6.95399 3.37268 6.68769L7.19639 8.90338C7.16953 9.01523 7.15342 9.1324 7.15342 9.24958C7.15342 10.1071 7.85694 10.8048 8.72157 10.8048C9.5862 10.8048 10.2897 10.1071 10.2897 9.24958C10.2897 8.39207 9.5862 7.69433 8.72157 7.69433Z" fill="#736A6B"/>
</svg>
