<svg width="17" height="11" viewBox="0 0 17 11" fill="none" xmlns="http://www.w3.org/2000/svg">
<path d="M9.5147 2.66317C9.5147 3.20825 9.50625 3.75334 9.52034 4.29842C9.52597 4.51305 9.55695 4.73789 9.61892 4.93889C9.75412 5.37155 10.0555 5.45672 10.3034 5.10923C10.647 4.62547 10.9794 4.12467 11.2695 3.59322C11.7004 2.80285 12.0271 1.94093 12.3144 1.05858C12.3342 0.99385 12.3623 0.932528 12.382 0.867799C12.4891 0.547563 12.6891 0.418105 12.9679 0.418105C13.6101 0.421512 14.2551 0.418105 14.8973 0.418105C15.0832 0.418105 15.2719 0.418105 15.4578 0.421512C15.5395 0.421512 15.624 0.424919 15.7057 0.438546C16.131 0.520309 16.2436 0.745156 16.1169 1.23914C15.9563 1.86939 15.6662 2.42129 15.3508 2.94934C14.8719 3.75334 14.379 4.54371 13.8918 5.34089C13.8101 5.47716 13.7312 5.62025 13.6636 5.76674C13.5143 6.08357 13.5284 6.39699 13.7284 6.67294C13.9171 6.93186 14.1199 7.17374 14.3255 7.41221C14.8353 8.00158 15.3508 8.58755 15.7648 9.28253C15.8916 9.49375 16.0127 9.7186 16.0944 9.96048C16.1479 10.1104 16.1479 10.3046 16.131 10.4715C16.1028 10.7372 15.931 10.9382 15.7085 10.9382C14.8381 10.9484 13.9678 10.9587 13.0975 10.9314C12.5989 10.9178 12.2074 10.5907 11.875 10.1615C11.5399 9.72541 11.2075 9.28594 10.8695 8.85328C10.785 8.74426 10.6864 8.64887 10.5878 8.5603C10.2639 8.28094 9.93438 8.36952 9.79073 8.8124C9.68652 9.13263 9.633 9.48353 9.57385 9.8208C9.54005 10.015 9.54287 10.2194 9.5147 10.417C9.47809 10.6793 9.34571 10.8565 9.12882 10.8871C8.85279 10.9246 8.57113 10.9518 8.29228 10.9484C6.31501 10.928 4.77712 9.8685 3.5716 8.02543C2.37172 6.18918 1.45068 4.15534 0.642303 2.03973C0.524005 1.73312 0.400073 1.42992 0.295858 1.11649C0.157843 0.707681 0.267691 0.493054 0.62822 0.441952C0.760602 0.421512 0.898617 0.424919 1.031 0.424919C1.66756 0.424919 2.30694 0.428325 2.94349 0.424919C3.24487 0.424919 3.46175 0.585037 3.5885 0.912087C3.8251 1.51168 4.0279 2.13171 4.29548 2.70746C4.62784 3.41947 5.00527 4.10423 5.3827 4.78559C5.48692 4.97296 5.64465 5.12627 5.79956 5.25572C6.01644 5.43628 6.21924 5.36815 6.31501 5.07176C6.39387 4.82988 6.45302 4.57096 6.47555 4.31205C6.54597 3.42969 6.55442 2.54734 6.42767 1.66839C6.36289 1.21188 6.13474 0.918901 5.76013 0.803071C5.48692 0.717901 5.4841 0.670207 5.67 0.411292C5.8559 0.155784 6.08968 0.0535805 6.36007 0.0535805C7.19943 0.0501737 8.03879 0.0501737 8.88096 0.0535805C9.27811 0.0569872 9.50344 0.373817 9.50907 0.932528C9.5147 1.50827 9.51189 2.08742 9.51189 2.66317C9.51189 2.66317 9.51189 2.66317 9.5147 2.66317Z" fill="#777777"/>
</svg>
