<svg width="13" height="11" viewBox="0 0 13 11" fill="none" xmlns="http://www.w3.org/2000/svg">
<path d="M0 9.79436C1.4286 9.88643 2.73419 9.56996 3.8972 8.63495C2.67269 8.51412 1.84237 7.89845 1.40344 6.69876C1.79484 6.77644 2.15269 6.76205 2.54129 6.66711C1.22172 6.22981 0.531183 5.3322 0.452903 3.90523C0.833118 4.08936 1.19376 4.21307 1.61871 4.24471C0.396989 3.22339 0.176129 2.00069 0.821935 0.539194C2.2757 2.35743 4.10129 3.34135 6.38538 3.42766C6.3686 3.34135 6.35462 3.27806 6.34624 3.21189C6.22043 2.24523 6.5028 1.43105 7.20172 0.763596C8.03763 -0.0361977 9.33763 -0.145522 10.249 0.349314C10.4811 0.475901 10.6824 0.657149 10.8865 0.832643C10.9619 0.895936 11.0178 0.895936 11.0989 0.875798C11.5938 0.754965 12.0718 0.579471 12.5219 0.337807C12.5583 0.317668 12.5974 0.30616 12.6589 0.283144C12.5806 0.608241 12.4409 0.881551 12.2424 1.11458C12.0467 1.34762 11.8174 1.54901 11.6077 1.7619C12.0746 1.70724 12.5303 1.54613 13 1.39653C12.9189 1.5116 12.849 1.64107 12.754 1.74176C12.4437 2.06398 12.1277 2.38045 11.8034 2.69116C11.7363 2.75733 11.7028 2.81487 11.7028 2.90981C11.714 3.76714 11.6189 4.61296 11.3729 5.43577C11.0654 6.47148 10.5985 7.42087 9.90796 8.24944C9.29011 8.98882 8.56323 9.58722 7.74409 10.0619C6.89419 10.5539 5.9772 10.8358 5.0071 10.9451C4.15161 11.043 3.30452 11.0113 2.46301 10.8387C1.58237 10.6632 0.76043 10.318 0 9.79436Z" fill="#777777"/>
</svg>
