<svg width="7" height="12" viewBox="0 0 7 12" fill="none" xmlns="http://www.w3.org/2000/svg">
<path d="M4.60428 11.9972C3.60606 11.9972 2.67959 11.9918 1.75312 12C1.45366 12.0027 1.48797 11.8282 1.48797 11.6646C1.48797 10.2549 1.49109 8.8453 1.49109 7.43565C1.49109 6.9694 1.49109 6.50042 1.49109 6.00146C0.979502 6.00146 0.502228 6.00146 0 6.00146C0 5.31708 0 4.6627 0 3.96196C0.474153 3.96196 0.960785 3.96196 1.49421 3.96196C1.49421 3.40028 1.51916 2.88496 1.49109 2.37508C1.40374 0.84001 2.68271 0.0247575 4.16132 0.00567131C5.08467 -0.00523508 6.01114 0.00294475 6.96257 0.00294475C6.96257 0.668234 6.96257 1.33352 6.96257 2.06425C6.53209 2.06425 6.09536 2.06425 5.66176 2.06425C4.78832 2.06425 4.59804 2.2333 4.59492 2.99947C4.59492 3.30213 4.59492 3.60478 4.59492 3.94015C5.40909 3.94015 6.18271 3.94015 7 3.94015C6.90018 4.63543 6.80659 5.28981 6.70677 5.97692C6.00802 5.97692 5.32798 5.97692 4.60428 5.97692C4.60428 7.98642 4.60428 9.96593 4.60428 11.9972Z" fill="#777777"/>
</svg>
