<svg width="13" height="12" viewBox="0 0 13 12" fill="none" xmlns="http://www.w3.org/2000/svg">
<path d="M12.309 4.0163L8.63304 3.70834L7.19762 0.445441C6.93939 -0.14848 6.05839 -0.14848 5.80016 0.445441L4.36473 3.71567L0.696416 4.0163C0.0280687 4.06763 -0.245346 4.87418 0.263509 5.29946L3.05082 7.63115L2.21539 11.092C2.06349 11.7226 2.76981 12.2212 3.34702 11.8839L6.49889 10.0508L9.65075 11.8913C10.228 12.2285 10.9343 11.7299 10.7824 11.0994L9.94695 7.63115L12.7343 5.29946C13.2431 4.87418 12.9773 4.06763 12.309 4.0163ZM6.49889 8.67968V1.86059L7.79761 4.82286L11.1242 5.10149L8.60266 7.21321L9.36215 10.3515L6.49889 8.67968Z" fill="#A0D053"/>
</svg>
