<svg width="12" height="12" viewBox="0 0 12 12" fill="none" xmlns="http://www.w3.org/2000/svg">
<path d="M11.3621 4.0163L7.96896 3.70834L6.64395 0.445441C6.40559 -0.14848 5.59236 -0.14848 5.35399 0.445441L4.02898 3.71567L0.642846 4.0163C0.0259096 4.06763 -0.226474 4.87418 0.243239 5.29946L2.81614 7.63115L2.04497 11.092C1.90476 11.7226 2.55675 12.2212 3.08956 11.8839L5.99897 10.0508L8.90839 11.8913C9.4412 12.2285 10.0932 11.7299 9.95297 11.0994L9.1818 7.63115L11.7547 5.29946C12.2244 4.87418 11.979 4.06763 11.3621 4.0163ZM5.99897 8.67968L3.36297 10.3441L4.06404 7.20587L1.73651 5.09416L4.80717 4.81553L5.99897 1.86059L7.19779 4.82286L10.2685 5.10149L7.94092 7.21321L8.64198 10.3515L5.99897 8.67968Z" fill="#A0D053"/>
</svg>
