<svg width="16" height="13" viewBox="0 0 16 13" fill="none" xmlns="http://www.w3.org/2000/svg">
<path d="M0 11.5458C1.75804 11.6549 3.36471 11.2799 4.79591 10.1719C3.28902 10.0287 2.26722 9.29917 1.72708 7.87754C2.20873 7.96959 2.64911 7.95254 3.12732 7.84004C1.50345 7.32184 0.653675 6.25818 0.557344 4.56722C1.02524 4.78541 1.46905 4.93201 1.99199 4.96951C0.488536 3.75925 0.216745 2.31034 1.01148 0.578478C2.80048 2.73308 5.04706 3.89902 7.85787 4.0013C7.83722 3.89902 7.82002 3.82402 7.8097 3.74561C7.65488 2.60012 8.00236 1.63532 8.86246 0.844394C9.89114 -0.103359 11.4909 -0.232908 12.6125 0.353472C12.898 0.503476 13.1458 0.718254 13.3969 0.926215C13.4898 1.00122 13.5586 1.00122 13.6584 0.977352C14.2673 0.834167 14.8556 0.626206 15.4095 0.339835C15.4543 0.315971 15.5024 0.302334 15.5781 0.27506C15.4818 0.660298 15.3098 0.984171 15.0655 1.26031C14.8247 1.53646 14.5426 1.7751 14.2845 2.02738C14.8591 1.96261 15.4199 1.77169 15.9978 1.59441C15.8981 1.73078 15.8121 1.8842 15.6951 2.00352C15.3132 2.38535 14.9244 2.76036 14.5254 3.12855C14.4428 3.20696 14.4015 3.27514 14.4015 3.38765C14.4153 4.40358 14.2983 5.40588 13.9955 6.38091C13.6171 7.60822 13.0425 8.73325 12.1928 9.71509C11.4324 10.5913 10.5379 11.3004 9.5299 11.8629C8.48402 12.4458 7.35557 12.78 6.16175 12.9095C5.10899 13.0254 4.06655 12.9879 3.03099 12.7834C1.94726 12.5754 0.935788 12.1663 0 11.5458Z" fill="#7D4096"/>
</svg>
