<svg width="18" height="14" viewBox="0 0 18 14" fill="none" xmlns="http://www.w3.org/2000/svg">
<path d="M10.4834 3.96543C10.4834 4.60095 10.4738 5.23647 10.4897 5.87198C10.4961 6.12222 10.5311 6.38437 10.6011 6.61871C10.7539 7.12315 11.0945 7.22245 11.3746 6.81731C11.763 6.25329 12.1386 5.66941 12.4664 5.04978C12.9535 4.12828 13.3227 3.12337 13.6474 2.09463C13.6697 2.01917 13.7015 1.94767 13.7238 1.8722C13.8447 1.49884 14.0707 1.3479 14.3859 1.3479C15.1116 1.35187 15.8405 1.3479 16.5663 1.3479C16.7764 1.3479 16.9896 1.3479 17.1997 1.35187C17.292 1.35187 17.3875 1.35585 17.4798 1.37173C17.9605 1.46706 18.0878 1.72921 17.9446 2.30515C17.7631 3.03996 17.4353 3.68342 17.0788 4.29908C16.5376 5.23646 15.9806 6.15796 15.4299 7.08741C15.3376 7.24628 15.2485 7.41311 15.1721 7.5839C15.0034 7.9533 15.0193 8.31872 15.2453 8.64045C15.4586 8.94232 15.6878 9.22433 15.9201 9.50237C16.4963 10.1895 17.0788 10.8727 17.5467 11.683C17.6899 11.9292 17.8268 12.1914 17.9191 12.4734C17.9796 12.6482 17.9796 12.8746 17.9605 13.0692C17.9287 13.379 17.7345 13.6134 17.483 13.6134C16.4994 13.6253 15.5159 13.6372 14.5323 13.6054C13.9689 13.5895 13.5264 13.2082 13.1508 12.7078C12.772 12.1993 12.3964 11.687 12.0144 11.1825C11.919 11.0554 11.8075 10.9442 11.6961 10.8409C11.3301 10.5152 10.9577 10.6185 10.7953 11.1348C10.6775 11.5082 10.6171 11.9173 10.5502 12.3106C10.512 12.537 10.5152 12.7753 10.4834 13.0056C10.442 13.3115 10.2924 13.518 10.0473 13.5538C9.73534 13.5975 9.41703 13.6292 9.1019 13.6253C6.86736 13.6014 5.12939 12.3662 3.76702 10.2173C2.41102 8.07643 1.37014 5.70516 0.456589 3.23856C0.322899 2.88108 0.182843 2.52758 0.0650677 2.16216C-0.0909045 1.68552 0.0332362 1.43529 0.440674 1.37571C0.59028 1.35187 0.746252 1.35585 0.895858 1.35585C1.61524 1.35585 2.33781 1.35982 3.05719 1.35585C3.39778 1.35585 3.64288 1.54253 3.78612 1.92384C4.0535 2.62291 4.28268 3.3458 4.58508 4.01707C4.96068 4.84721 5.38722 5.64558 5.81376 6.43997C5.93153 6.65843 6.10978 6.83717 6.28486 6.98811C6.52995 7.19862 6.75914 7.11918 6.86737 6.77362C6.95649 6.49161 7.02334 6.18974 7.0488 5.88787C7.12838 4.85913 7.13793 3.83039 6.99469 2.80562C6.92148 2.27337 6.66365 1.93178 6.24029 1.79674C5.93153 1.69744 5.92835 1.64183 6.13843 1.33996C6.34852 1.04206 6.61272 0.922901 6.91829 0.922901C7.86686 0.918929 8.81543 0.918929 9.76717 0.922901C10.216 0.926873 10.4706 1.29627 10.477 1.94767C10.4834 2.61893 10.4802 3.29417 10.4802 3.96543C10.4802 3.96543 10.4802 3.96543 10.4834 3.96543Z" fill="#7D4096"/>
</svg>
