<svg width="31" height="41" viewBox="0 0 31 41" fill="none" xmlns="http://www.w3.org/2000/svg">
<path d="M13.4954 10.678C13.5869 9.28864 13.5595 7.87224 13.7882 6.50997C14.3463 3.19001 17.4206 0.366237 20.6962 0.0143929C21.474 -0.0668018 22.0687 0.194826 22.5079 0.817319C22.9745 1.46688 23.002 2.15252 22.6085 2.85621C22.4987 3.05468 22.3615 3.23512 22.2242 3.41555C21.1354 4.93119 21.1354 6.82573 22.2791 8.32332C24.0999 10.7141 25.9573 13.0777 27.7873 15.4685C30.2577 18.6892 31.3007 22.3249 30.9256 26.3395C30.2851 33.0877 24.8044 38.7443 18.0245 39.8088C9.67999 41.117 2.24128 35.6859 0.466235 28.3153C-0.62258 23.8315 0.200894 19.6635 2.88176 15.8835C4.13527 14.1242 5.48027 12.4282 6.78868 10.7141C7.36511 9.95624 8.16114 9.71265 9.00291 9.9833C9.78063 10.2359 10.2473 10.9035 10.2656 11.8237C10.2839 12.3831 10.2473 12.9334 10.2747 13.4927C10.3205 14.2144 10.6224 14.8009 11.3544 15.0805C11.9949 15.3241 12.736 15.1617 13.1294 14.6294C13.3582 14.3227 13.5229 13.9077 13.5412 13.5288C13.5961 12.5815 13.5595 11.6343 13.5595 10.687C13.5503 10.678 13.5229 10.678 13.4954 10.678ZM11.2903 19.3027C9.65254 19.3027 8.34413 20.5747 8.34413 22.1806C8.33498 23.7684 9.66169 25.0765 11.2812 25.0855C12.8915 25.0945 14.2182 23.7864 14.2182 22.1896C14.2182 20.5837 12.9281 19.3027 11.2903 19.3027ZM19.7172 27.5845C18.0794 27.5665 16.7619 28.8385 16.7527 30.4354C16.7436 32.0502 18.0245 33.3313 19.6532 33.3493C21.2818 33.3674 22.6085 32.0953 22.6268 30.4985C22.6451 28.9017 21.3459 27.6026 19.7172 27.5845ZM21.291 21.0709C21.291 20.5116 21.1171 20.1958 20.7328 20.0154C20.3668 19.844 20.0192 19.9071 19.7081 20.1417C19.58 20.2409 19.4702 20.3672 19.3604 20.4935C17.8598 22.1715 16.3501 23.8496 14.8496 25.5276C14.0627 26.4027 13.2667 27.2778 12.4889 28.1709C12.1047 28.613 12.1687 29.2084 12.5987 29.5783C13.0013 29.9301 13.5686 29.8941 13.9437 29.4791C16.2952 26.8538 18.6467 24.2285 20.989 21.6032C21.1446 21.4318 21.2269 21.1792 21.291 21.0709ZM10.6316 32.7088C11.1714 32.7088 11.6289 32.2848 11.638 31.7525C11.6472 31.2112 11.1714 30.7511 10.6224 30.7601C10.0917 30.7692 9.63424 31.2202 9.64339 31.7435C9.64339 32.2758 10.0917 32.7088 10.6316 32.7088Z" fill="white"/>
<path d="M11.2902 19.3027C12.928 19.3027 14.2181 20.5838 14.2181 22.1897C14.2181 23.7865 12.8914 25.0946 11.2811 25.0856C9.66155 25.0766 8.34399 23.7594 8.34399 22.1806C8.35314 20.5748 9.66155 19.3027 11.2902 19.3027ZM12.2143 22.1806C12.2143 21.6664 11.8209 21.2695 11.2994 21.2604C10.7687 21.2514 10.3569 21.6574 10.3661 22.1987C10.3661 22.749 10.7595 23.1189 11.3177 23.1099C11.8392 23.0918 12.2143 22.7039 12.2143 22.1806Z" fill="#A0D053"/>
<path d="M19.7171 27.5845C21.3458 27.6026 22.645 28.9017 22.6267 30.4985C22.6085 32.1044 21.2909 33.3674 19.6531 33.3493C18.0153 33.3313 16.7343 32.0502 16.7526 30.4354C16.7618 28.8385 18.0793 27.5755 19.7171 27.5845ZM20.6047 30.4624C20.6047 29.9392 20.2204 29.5512 19.6988 29.5422C19.1682 29.5332 18.7564 29.9392 18.7564 30.4805C18.7564 31.0037 19.1499 31.3917 19.6714 31.4007C20.2112 31.4007 20.6138 31.0037 20.6047 30.4624Z" fill="#A0D053"/>
<path d="M21.2908 21.0708C21.2359 21.1791 21.1444 21.4227 20.9889 21.6031C18.6466 24.2374 16.2951 26.8627 13.9436 29.479C13.5685 29.894 13.0012 29.9211 12.5986 29.5783C12.1686 29.2084 12.1045 28.6129 12.4888 28.1709C13.2665 27.2868 14.0626 26.4117 14.8494 25.5275C16.35 23.8495 17.8597 22.1715 19.3602 20.4935C19.47 20.3672 19.5798 20.2409 19.7079 20.1416C20.019 19.898 20.3759 19.8439 20.7327 20.0153C21.117 20.1957 21.2817 20.5205 21.2908 21.0708Z" fill="#A0D053"/>
<path d="M10.6315 32.7088C10.0917 32.7088 9.64332 32.2758 9.63417 31.7525C9.62502 31.2293 10.0825 30.7782 10.6132 30.7692C11.1622 30.7602 11.638 31.2203 11.6288 31.7616C11.6288 32.2848 11.1805 32.7088 10.6315 32.7088Z" fill="#A0D053"/>
<path d="M12.2144 22.1806C12.2144 22.7129 11.8485 23.0918 11.3178 23.1098C10.7596 23.1189 10.3662 22.749 10.3662 22.1986C10.3662 21.6574 10.7779 21.2514 11.2995 21.2604C11.821 21.2604 12.2053 21.6574 12.2144 22.1806Z" fill="white"/>
<path d="M20.6047 30.4626C20.6047 31.0039 20.2113 31.4008 19.6623 31.3918C19.1408 31.3828 18.7565 30.9949 18.7473 30.4716C18.7473 29.9303 19.1591 29.5243 19.6897 29.5334C20.2204 29.5514 20.6047 29.9393 20.6047 30.4626Z" fill="white"/>
</svg>
