<svg width="18" height="40" viewBox="0 0 18 40" fill="none" xmlns="http://www.w3.org/2000/svg">
<path d="M8.12529 23.2934C8.12529 21.4397 8.12529 19.4197 8.12529 17.6136C6.61165 16.9007 5.14606 16.3778 3.87268 15.5461C1.92657 14.239 0.941498 12.3141 0.965524 9.89005C0.98955 7.79875 0.893446 5.70745 0.74929 3.61615C0.725264 3.09333 0.460977 2.54674 0.220716 2.07144C-0.211753 1.23967 -0.0195442 0.788144 0.893446 0.954497C2.47917 1.23967 4.04086 1.71497 5.57853 2.09521C6.61165 1.42979 7.69282 0.360378 8.99023 0.0514365C10.624 -0.3288 11.2727 1.50109 12.2097 2.19027C13.8675 1.7625 15.3812 1.31097 16.9188 0.954497C17.2552 0.883203 17.6396 1.09709 18 1.19214C17.9279 1.50109 17.8318 1.83379 17.7597 2.14274C17.5195 3.14086 17.1831 4.11521 17.111 5.11333C16.9909 6.53922 17.063 7.9651 17.087 9.39099C17.111 13.3122 14.9487 16.0689 11.1045 17.0432C10.7201 17.1383 10.3357 17.2334 9.90322 17.3522C9.90322 20.3465 9.90322 23.2934 9.90322 26.264C9.90322 26.5016 9.90322 26.7155 9.90322 26.8106C11.561 25.6936 13.2428 24.6004 14.8766 23.4597C15.5493 22.9844 16.126 22.3665 16.7747 21.8437C16.9909 21.6774 17.3273 21.5348 17.5916 21.5823C17.7357 21.6061 17.9279 22.0338 17.9279 22.2477C17.7357 24.7668 17.039 27.0957 14.8286 28.6404C13.5312 29.5673 12.2097 30.4466 10.8883 31.3259C10.1675 31.8012 9.87919 32.3953 9.90322 33.3221C9.9753 35.5322 9.92724 37.7423 9.92724 40C9.35062 40 8.8701 40 8.19737 40C8.19737 39.6198 8.19737 39.192 8.19737 38.788C8.19737 35.7461 8.24542 32.6805 8.17334 29.6386C8.14932 29.0682 7.83698 28.3315 7.38048 27.9513C6.17918 26.9769 4.88177 26.1214 3.56034 25.2659C1.18176 23.7924 0.292795 21.511 0.0525339 18.8969C0.0285079 18.5642 0.292795 18.2077 0.412925 17.875C0.701238 18.0414 1.01358 18.1602 1.27786 18.3503C2.02267 18.9444 2.71943 19.5861 3.51229 20.1327C5.02593 21.2258 6.61165 22.2715 8.12529 23.2934ZM8.77399 15.451C8.94218 15.4748 9.11036 15.4748 9.27854 15.4985C9.39867 14.0964 9.47075 12.6943 9.61491 11.2922C9.85517 9.22464 9.85517 7.06204 10.5519 5.16086C11.0565 3.7825 10.7682 3.0458 9.80711 2.30909C9.49477 2.04768 8.67789 1.88132 8.50971 2.04768C7.93308 2.6418 6.97204 3.68745 7.14022 4.09145C8.26945 6.51545 8.34152 9.03452 8.38958 11.6249C8.46165 12.8844 8.65386 14.1677 8.77399 15.451Z" fill="white"/>
</svg>
