<svg width="40" height="40" viewBox="0 0 40 40" fill="none" xmlns="http://www.w3.org/2000/svg">
<path d="M25.9946 1.58634C27.1493 -0.264404 29.9103 -0.639671 31.4037 1.27078C31.4645 1.21108 31.5166 1.15137 31.5774 1.09167C32.5585 0.00851663 33.9998 -0.29852 35.3195 0.307024C36.6219 0.89551 37.3599 2.26012 37.1602 3.66737C37.0386 4.52877 36.6566 5.26225 36.0228 5.86779C35.5973 6.26864 35.1372 6.63538 34.6944 7.01918C41.8053 14.6524 41.5622 25.9019 35.1545 33.1514C28.7035 40.452 18.0154 42.1322 9.68025 37.1855C1.34511 32.2388 -2.15392 22.1578 1.34511 13.2537C4.88754 4.24732 15.2544 -1.64607 25.9946 1.58634ZM33.6438 7.71001C33.0534 8.22174 32.4803 8.70788 31.9247 9.20255C31.5339 9.55223 31.2735 9.5437 30.8654 9.20255C30.1448 8.597 29.4068 7.99999 28.6687 7.40297C28.087 6.93389 27.4792 6.49892 26.9149 6.01278C26.0466 5.24519 25.5517 4.28144 25.6212 3.11299C25.6386 2.80596 25.491 2.7292 25.2479 2.66097C22.2264 1.81662 19.1702 1.67163 16.1053 2.33687C6.03362 4.50319 -0.287191 13.8678 1.57953 23.8209C3.44626 33.7996 13.5787 40.4861 23.685 38.4222C34.3297 36.2473 40.8415 25.9957 38.1413 15.6674C37.3512 12.6652 35.8491 10.0469 33.6438 7.71001ZM31.395 7.95734C32.5064 7.10447 33.6264 6.25159 34.7291 5.38165C35.2327 4.98933 35.6407 4.51171 35.8318 3.88911C36.1617 2.8486 35.7362 1.83368 34.7985 1.41577C33.8261 0.972269 32.8797 1.27931 32.272 2.24306C32.1591 2.42216 32.0723 2.61832 31.9594 2.79743C31.6729 3.26651 31.1346 3.25798 30.848 2.7889C30.6917 2.53304 30.5528 2.26864 30.3792 2.02131C29.8669 1.31342 29.0855 1.06609 28.2346 1.32195C27.4272 1.57781 26.8888 2.27717 26.8541 3.09594C26.8194 4.06822 27.323 4.78464 28.0436 5.35606C29.1463 6.24306 30.2837 7.09594 31.395 7.95734Z" fill="white"/>
<path d="M33.6442 7.70979C35.8496 10.0381 37.3516 12.665 38.1417 15.6671C40.8507 25.987 34.3302 36.2386 23.6855 38.4219C13.5878 40.4859 3.4554 33.7993 1.57999 23.8207C-0.286731 13.8676 6.03409 4.50296 16.1144 2.32812C19.1793 1.67141 22.2355 1.80787 25.257 2.65222C25.5001 2.72045 25.6477 2.79721 25.6304 3.10424C25.5696 4.28122 26.0558 5.23644 26.924 6.00403C27.4797 6.4987 28.0962 6.93367 28.6779 7.39422C29.4159 7.99124 30.1539 8.58825 30.8745 9.1938C31.2739 9.53495 31.5344 9.53495 31.9338 9.1938C32.4808 8.70766 33.0538 8.23004 33.6442 7.70979ZM19.9694 29.1341C20.2125 29.1341 20.4643 29.1512 20.7074 29.1341C20.9939 29.117 21.2804 29.0829 21.567 29.0317C24.1283 28.6309 26.2902 27.4113 28.2351 25.7823C28.8429 25.2791 29.4159 24.7332 29.9542 24.1618C30.0931 24.0168 30.1452 23.6671 30.0758 23.4795C30.0063 23.3089 29.7111 23.1554 29.5027 23.1469C29.3291 23.1384 29.112 23.3175 28.9731 23.4539C27.7662 24.6565 26.4725 25.7311 24.9618 26.5413C22.6957 27.761 20.308 28.2215 17.7641 27.6245C15.0551 26.9848 12.8845 25.4838 11.0439 23.4795C10.6792 23.0787 10.3493 23.0104 10.0454 23.2833C9.75017 23.5392 9.75017 23.9145 10.1235 24.2812C10.8181 24.9635 11.504 25.6629 12.2681 26.2684C14.5168 28.0254 17.0434 29.117 19.9694 29.1341ZM29.9021 14.4219C29.9021 12.8441 28.5997 11.5819 27.0022 11.5819C25.422 11.5904 24.137 12.8441 24.1283 14.4049C24.1109 15.9742 25.4133 17.262 27.0109 17.2706C28.5997 17.2706 29.9021 15.9998 29.9021 14.4219ZM10.766 14.4049C10.7573 15.9827 12.0337 17.262 13.6399 17.2706C15.2201 17.2791 16.5225 16.0168 16.5312 14.4731C16.5485 12.8868 15.2722 11.5989 13.6833 11.5904C12.0771 11.5733 10.7834 12.8271 10.766 14.4049Z" fill="white"/>
<path d="M31.3954 7.95734C30.2841 7.09594 29.1467 6.24306 28.044 5.35606C27.3233 4.77611 26.8284 4.06822 26.8545 3.09594C26.8805 2.27717 27.4189 1.56928 28.235 1.32195C29.0772 1.05756 29.8586 1.30489 30.3796 2.02131C30.5532 2.26012 30.6921 2.53304 30.8484 2.7889C31.1349 3.25798 31.6733 3.25798 31.9598 2.79743C32.0726 2.61832 32.1595 2.42216 32.2723 2.24306C32.8801 1.28783 33.8265 0.980798 34.7989 1.41577C35.7366 1.84221 36.1621 2.85713 35.8321 3.88911C35.6324 4.51171 35.2244 4.98933 34.7295 5.38165C33.6268 6.25159 32.5068 7.09594 31.3954 7.95734Z" fill="#A0D053"/>
<path d="M19.9694 29.1342C17.0348 29.1257 14.5082 28.034 12.2594 26.2685C11.4954 25.6715 10.8094 24.9636 10.1149 24.2813C9.74151 23.9146 9.74151 23.5393 10.0367 23.2834C10.3493 23.0105 10.6705 23.0788 11.0352 23.4796C12.8759 25.4839 15.0465 26.9849 17.7554 27.6246C20.2994 28.2216 22.687 27.7611 24.9531 26.5414C26.4639 25.7312 27.7662 24.6481 28.9644 23.454C29.112 23.309 29.3204 23.1299 29.4941 23.147C29.7024 23.1555 29.9976 23.309 30.0671 23.4796C30.1452 23.6672 30.0845 24.0169 29.9455 24.1619C29.4072 24.7333 28.8255 25.2792 28.2264 25.7824C26.2816 27.4114 24.1196 28.6225 21.5583 29.0318C21.2718 29.0745 20.9853 29.1086 20.6987 29.1342C20.4643 29.1427 20.2212 29.1342 19.9694 29.1342Z" fill="#A0D053"/>
<path d="M29.9019 14.4221C29.9019 15.9999 28.5996 17.2793 27.0107 17.2707C25.4131 17.2622 24.1107 15.9744 24.1281 14.4051C24.1455 12.8443 25.4218 11.5906 27.002 11.582C28.5995 11.582 29.9019 12.8443 29.9019 14.4221ZM26.9933 16.0341C27.9136 16.0426 28.6603 15.3262 28.669 14.4306C28.6777 13.5436 27.9136 12.7931 27.0107 12.7931C26.1164 12.7931 25.3784 13.5181 25.3697 14.388C25.361 15.3176 26.073 16.0341 26.9933 16.0341Z" fill="#A0D053"/>
<path d="M10.7662 14.4051C10.7748 12.8273 12.0772 11.5735 13.6835 11.5821C15.281 11.5991 16.5487 12.8784 16.5313 14.4648C16.5139 16.017 15.2203 17.2708 13.64 17.2622C12.0425 17.2622 10.7575 15.9829 10.7662 14.4051ZM13.6748 16.0341C14.5864 16.0256 15.3158 15.3006 15.3071 14.3966C15.2984 13.5096 14.5257 12.7761 13.6314 12.7932C12.7197 12.8102 11.9991 13.5437 12.0077 14.4392C12.0164 15.3433 12.7458 16.0512 13.6748 16.0341Z" fill="#A0D053"/>
<path d="M26.9933 16.0339C26.0643 16.0254 25.361 15.309 25.3697 14.3879C25.3784 13.5094 26.1164 12.793 27.0107 12.793C27.9137 12.793 28.6777 13.5435 28.669 14.4305C28.6603 15.326 27.9137 16.0424 26.9933 16.0339Z" fill="#A0D053"/>
<path d="M13.6749 16.0337C12.7459 16.0422 12.0166 15.3429 12.0079 14.4388C11.9992 13.5433 12.7285 12.8098 13.6315 12.7928C14.5258 12.7757 15.2898 13.5092 15.3072 14.3962C15.3159 15.3002 14.5866 16.0252 13.6749 16.0337Z" fill="#A0D053"/>
</svg>
