<svg width="277" height="65" viewBox="0 0 277 65" fill="none" xmlns="http://www.w3.org/2000/svg">
<path d="M50.1117 4.03239C50.2117 8.43506 47.0117 13.0379 43.0117 14.5388C40.0117 15.7395 38.9117 15.0391 38.6117 11.7371C38.2117 7.63458 41.2117 2.53148 45.1117 0.73039C48.6117 -0.870581 50.0117 0.130026 50.1117 4.03239Z" fill="#9DC55B"/>
<path d="M14.6117 44.3568C16.5117 44.4569 18.1117 45.3574 18.1117 45.3574C18.1117 45.3574 20.1117 47.0585 19.2117 48.7595C17.0117 52.7619 11.0117 55.0633 6.81172 53.4624C4.51172 52.5618 3.91172 51.3611 5.41172 49.1597C7.71172 45.9578 12.7117 44.2568 14.6117 44.3568Z" fill="#9DC55B"/>
<path d="M4.81172 39.9542C6.51172 40.1543 8.81172 40.4545 8.71172 42.2556C8.61172 44.557 6.21172 45.0573 4.11172 45.0573C2.21172 45.0573 -0.188279 44.557 0.0117212 42.6558C0.211721 40.5545 2.71172 40.0542 4.81172 39.9542Z" fill="#9DC55B"/>
<path d="M54.4117 9.23553C53.2117 9.03541 52.5117 8.53511 52.8117 7.43444C53.5117 4.93292 55.1117 3.43201 57.7117 3.13183C58.9117 3.03177 59.5117 3.73219 59.2117 4.93292C58.6117 7.43444 56.8117 8.63517 54.4117 9.23553Z" fill="#9DC55B"/>
<path d="M4.51172 60.5667C3.31172 60.2665 1.51172 60.2665 1.61172 58.7656C1.71172 57.1646 3.51172 56.7644 4.91172 56.6643C6.21172 56.5642 8.01172 57.0646 8.01172 58.3653C8.11172 60.1664 6.11172 60.3666 4.51172 60.5667Z" fill="#9DC55B"/>
<path d="M67.2117 49.8602C65.7117 44.0567 62.4117 39.554 57.2117 36.5522C55.4117 35.5515 53.5117 34.7511 51.4117 33.6504C57.0117 29.4478 60.8117 24.4448 61.7117 17.7407C62.5117 11.7371 60.5117 9.83595 54.5117 11.0367C52.7117 11.4369 50.8117 12.1374 49.1117 12.8378C45.3117 14.5388 42.6117 17.5406 39.8117 20.7426C37.2117 14.1386 33.1117 9.23559 26.4117 7.03426C22.2117 5.63341 21.5117 6.03365 20.2117 10.2362C18.5117 15.5394 20.0117 20.5424 22.2117 25.7456C20.9117 25.7456 19.8117 25.7456 18.8117 25.7456C14.2117 26.0458 10.0117 27.4466 6.41173 30.4485C4.71173 31.8493 4.51173 33.1501 5.71173 35.0512C8.31173 39.2538 12.1117 41.6553 16.7117 42.956C18.7117 43.5564 20.8117 43.8566 23.0117 44.2568C21.2117 47.859 19.6117 51.3611 19.5117 55.2635C19.4117 58.7656 19.3117 62.9682 22.5117 64.5691C25.2117 65.97 28.6117 63.6686 31.3117 61.7674C36.8117 57.9651 39.6117 52.4618 41.0117 45.5576C42.1117 46.7583 42.9117 47.7589 43.8117 48.4594C49.9117 53.7626 56.6117 56.4642 64.8117 53.9627C67.1117 53.4624 67.9117 52.2617 67.2117 49.8602ZM24.0117 14.1386C24.7117 11.3369 26.0117 10.1361 29.1117 11.4369C34.6117 13.6383 38.9117 19.842 38.9117 25.9457C38.9117 26.346 38.9117 26.6461 38.9117 27.0464C38.5117 32.4497 36.6117 33.4503 31.8117 30.8487C26.0117 27.6468 22.5117 20.1422 24.0117 14.1386ZM11.7117 36.352C9.81173 34.0506 10.2117 32.4497 12.6117 30.9488C15.2117 29.3478 17.9117 28.3472 19.9117 28.5473C26.2117 28.6474 30.5117 30.4485 33.6117 34.8511C34.5117 36.0518 34.6117 37.0525 33.3117 38.1531C27.6117 43.3563 16.5117 42.3557 11.7117 36.352ZM38.9117 45.2574C38.9117 52.2617 33.9117 58.7656 27.9117 60.2665C26.0117 60.7668 25.0117 60.3666 24.3117 58.5655C21.4117 51.6613 27.6117 40.5546 35.0117 39.2538C36.6117 38.9536 37.5117 39.2538 38.0117 40.8548C38.5117 42.4557 39.2117 44.0567 38.9117 45.2574ZM38.8117 37.7529C37.7117 38.4533 36.5117 38.2532 35.6117 37.2526C34.7117 36.252 34.6117 35.1513 35.4117 34.0506C36.5117 32.5497 37.9117 32.5497 39.4117 33.5503L39.5117 33.6504C40.4117 35.1513 40.6117 36.6522 38.8117 37.7529ZM40.4117 33.6504C40.4117 33.5503 40.4117 33.5503 40.4117 33.6504C39.9117 26.1458 42.6117 20.3423 49.4117 16.8402C52.1117 15.4394 55.6117 14.0385 57.7117 16.3399C59.6117 18.3411 58.4117 21.7432 57.2117 24.4448C54.3117 30.9488 48.4117 34.1507 40.4117 33.6504C40.4117 33.5503 40.4117 33.6504 40.4117 33.6504ZM60.9117 50.8608C59.5117 51.3611 58.2117 51.5613 56.7117 51.4612C49.8117 51.4612 43.6117 46.258 41.7117 39.3539C41.2117 37.5528 42.1117 36.9524 43.2117 36.5522C50.5117 33.5503 61.5117 40.0543 62.7117 47.859C62.9117 49.6601 62.3117 50.3605 60.9117 50.8608Z" fill="#7B5891"/>
<path d="M78.7117 53.8626V14.6388H89.5117C103.312 14.6388 110.212 21.0427 110.212 33.7504C110.212 39.8541 108.312 44.657 104.412 48.3592C100.612 52.0615 95.4117 53.8626 89.0117 53.8626H78.7117ZM83.3117 18.8413V49.7601H89.2117C94.3117 49.7601 98.3117 48.3592 101.212 45.6576C104.112 42.8559 105.512 38.9535 105.512 33.9505C105.512 23.9444 100.212 18.8413 89.5117 18.8413H83.3117Z" fill="#7B5891"/>
<path d="M137.412 53.8626H132.912V49.4599H132.812C130.812 52.862 128.012 54.463 124.212 54.463C121.412 54.463 119.212 53.7626 117.612 52.2616C116.012 50.7607 115.212 48.8596 115.212 46.3581C115.212 41.1549 118.312 38.053 124.412 37.2525L132.812 36.0518C132.812 31.2489 130.912 28.9475 127.012 28.9475C123.612 28.9475 120.612 30.0482 117.912 32.3496V27.7468C120.712 25.9457 123.812 25.1452 127.412 25.1452C134.012 25.1452 137.312 28.6473 137.312 35.5515V53.8626H137.412ZM132.912 39.7541L126.112 40.6546C124.012 40.9548 122.512 41.4551 121.412 42.1555C120.312 42.8559 119.812 44.1567 119.812 46.0579C119.812 47.4587 120.312 48.5594 121.312 49.4599C122.312 50.3605 123.612 50.7607 125.212 50.7607C127.412 50.7607 129.312 49.9602 130.712 48.4593C132.112 46.8584 132.912 44.9572 132.912 42.5558V39.7541Z" fill="#7B5891"/>
<path d="M159.712 16.3399C158.812 15.8395 157.812 15.6394 156.712 15.6394C153.612 15.6394 152.012 17.6406 152.012 21.543V25.8456H158.612V29.6479H152.012V53.8626H147.512V29.6479H142.812V25.8456H147.612V21.3429C147.612 18.4411 148.412 16.0397 150.112 14.3386C151.812 12.6376 153.912 11.7371 156.412 11.7371C157.812 11.7371 158.912 11.9372 159.712 12.2374V16.3399Z" fill="#9DC55B"/>
<path d="M167.912 53.8622H163.412V12.4371H167.912V53.8622Z" fill="#9DC55B"/>
<path d="M188.712 54.563C184.612 54.563 181.312 53.2622 178.812 50.6606C176.312 48.0591 175.112 44.5569 175.112 40.2543C175.112 35.5515 176.412 31.8492 179.012 29.2477C181.612 26.6461 185.012 25.2452 189.412 25.2452C193.612 25.2452 196.812 26.546 199.212 29.1476C201.512 31.7492 202.712 35.2513 202.712 39.8541C202.712 44.3568 201.412 47.8589 198.912 50.5606C196.312 53.1622 192.912 54.563 188.712 54.563ZM189.012 28.9475C186.112 28.9475 183.812 29.9481 182.212 31.8492C180.512 33.8505 179.712 36.5521 179.712 39.9542C179.712 43.2562 180.512 45.8577 182.212 47.8589C183.912 49.7601 186.212 50.7607 189.012 50.7607C191.912 50.7607 194.112 49.8602 195.712 47.959C197.312 46.0579 198.012 43.3562 198.012 39.9542C198.012 36.452 197.212 33.7504 195.712 31.8492C194.112 29.9481 191.912 28.9475 189.012 28.9475Z" fill="#9DC55B"/>
<path d="M224.412 30.4484C223.612 29.848 222.512 29.5479 221.012 29.5479C219.112 29.5479 217.512 30.4484 216.212 32.2495C214.912 34.0506 214.312 36.5521 214.312 39.654V53.9627H209.812V25.9457H214.312V31.7492H214.412C215.012 29.748 216.012 28.2471 217.312 27.1464C218.612 26.0457 220.112 25.4454 221.712 25.4454C222.912 25.4454 223.812 25.5454 224.412 25.8456V30.4484Z" fill="#9DC55B"/>
<path d="M230.812 54.4629C230.012 54.4629 229.212 54.1627 228.712 53.5624C228.112 52.962 227.812 52.2616 227.812 51.361C227.812 50.4605 228.112 49.7601 228.712 49.1597C229.312 48.5593 230.012 48.2592 230.812 48.2592C231.712 48.2592 232.412 48.5593 233.012 49.1597C233.612 49.7601 233.912 50.4605 233.912 51.361C233.912 52.1615 233.612 52.962 233.012 53.5624C232.412 54.1627 231.712 54.4629 230.812 54.4629Z" fill="#9DC55B"/>
<path d="M242.912 51.161L242.812 53.8626H239.812V26.2458H242.812V38.4533H242.912C244.412 35.9517 246.512 34.751 249.312 34.751C251.712 34.751 253.612 35.5515 254.912 37.2525C256.312 38.9536 256.912 41.1549 256.912 43.9566C256.912 47.0585 256.112 49.56 254.612 51.4611C253.112 53.3623 251.012 54.2628 248.412 54.2628C246.112 54.3629 244.212 53.2622 242.912 51.161ZM242.912 43.6564V46.258C242.912 47.7589 243.412 49.1597 244.412 50.1603C245.412 51.161 246.712 51.7613 248.212 51.7613C250.012 51.7613 251.412 51.0609 252.512 49.66C253.512 48.2592 254.012 46.358 254.012 43.8565C254.012 41.7553 253.512 40.1543 252.612 38.9536C251.612 37.7528 250.312 37.1525 248.712 37.1525C247.012 37.1525 245.612 37.7528 244.512 38.9536C243.412 40.3544 242.912 41.8553 242.912 43.6564Z" fill="#9DC55B"/>
<path d="M276.712 35.2513L268.112 56.8644C266.612 60.7667 264.412 62.6679 261.712 62.6679C260.912 62.6679 260.312 62.5678 259.812 62.4678V59.7661C260.412 59.9663 261.012 60.0663 261.612 60.0663C263.112 60.0663 264.212 59.1658 265.012 57.3647L266.512 53.8626L259.212 35.2513H262.512L267.512 49.66C267.612 49.8601 267.712 50.3604 267.912 51.0609H268.012C268.112 50.7607 268.212 50.2604 268.412 49.66L273.712 35.2513H276.712Z" fill="#9DC55B"/>
</svg>
