<svg width="19" height="21" viewBox="0 0 19 21" fill="none" xmlns="http://www.w3.org/2000/svg">
<path d="M17.9444 14.5833C16.625 14.5833 15.3583 14.35 14.1761 13.9183C13.8067 13.79 13.395 13.8833 13.0994 14.1983L10.7772 16.765C7.79 15.085 5.34111 12.39 3.82111 9.07667L6.14333 6.49833C6.43889 6.195 6.52333 5.74 6.40722 5.33167C6.01667 4.025 5.80556 2.625 5.80556 1.16667C5.80556 0.525 5.33056 0 4.75 0H1.05556C0.475 0 0 0.525 0 1.16667C0 12.1217 8.03278 21 17.9444 21C18.525 21 19 20.475 19 19.8333V15.75C19 15.1083 18.525 14.5833 17.9444 14.5833Z" fill="#fff" fill-opacity="1"/>
</svg>
